<svg width="342" height="88" viewBox="0 0 342 88" fill="none" xmlns="http://www.w3.org/2000/svg">
<path fill-rule="evenodd" clip-rule="evenodd" d="M274.16 35.9235C276.97 37.529 279.685 39.0868 282.415 40.6447C284.427 41.8051 286.439 42.9496 288.451 44.11C292.091 46.2719 294.199 49.467 294.902 53.5999C294.982 54.045 294.982 54.5219 294.982 54.9829C294.998 59.6086 295.013 64.2344 294.982 68.8601C294.966 71.9916 293.768 74.694 291.74 77.0625C290.654 78.3342 289.313 79.2561 287.876 80.0827C284.342 82.0962 280.813 84.1203 277.289 86.155C274.974 87.5062 272.467 88.1102 269.801 87.9831C267.853 87.8718 265.984 87.3631 264.276 86.3935C259.73 83.8077 255.201 81.2007 250.687 78.5726C250.017 78.1911 249.538 78.1116 248.803 78.5408C244.38 81.1319 239.925 83.6593 235.486 86.2027C233.187 87.5221 230.712 88.1102 228.077 87.9831C225.794 87.8559 223.702 87.0929 221.738 85.9484C218.145 83.866 214.521 81.8631 210.96 79.7171C206.76 77.2055 204.493 73.47 204.429 68.5581C204.381 64.139 204.429 59.7199 204.429 55.2849C204.413 52.1375 205.515 49.3716 207.527 46.9554C208.581 45.6996 209.874 44.7458 211.295 43.9351C215.75 41.3918 220.189 38.8166 224.644 36.2733C225.123 36.003 225.251 35.701 225.251 35.1923C225.235 29.9466 225.171 24.7009 225.267 19.4552C225.347 14.7341 227.422 10.9827 231.462 8.48698C234.704 6.48407 238.057 4.65603 241.362 2.7644C242.24 2.27162 243.103 1.76295 243.997 1.30197C245.418 0.586645 246.935 0.221036 248.516 0.0620757C251.454 -0.224053 254.12 0.491269 256.643 1.9537C260.172 3.9884 263.685 6.02309 267.23 8.02599C270.152 9.64739 272.196 12 273.377 15.0838C273.888 16.4509 274.16 17.8656 274.16 19.2963C274.176 24.542 274.176 29.7877 274.176 35.0334C274.16 35.3036 274.16 35.5897 274.16 35.9235ZM249.665 69.8139C249.761 69.7821 249.793 69.7821 249.809 69.7662C254.28 67.2069 258.783 64.6954 263.206 62.0566C265.649 60.5942 266.926 58.3528 266.926 55.4757C266.942 50.5638 266.926 45.6519 266.942 40.7559C266.942 40.2473 266.799 39.977 266.352 39.7227C262.088 37.2906 257.841 34.7949 253.546 32.3946C250.975 30.9481 248.308 31.0117 245.737 32.4741C241.522 34.8585 237.338 37.2906 233.139 39.675C232.644 39.9452 232.452 40.2473 232.468 40.8195C232.484 45.636 232.484 50.4684 232.468 55.3008C232.468 58.4164 233.889 60.6896 236.524 62.2633C237.706 62.9627 238.903 63.6303 240.085 64.298C243.278 66.1419 246.456 67.9699 249.665 69.8139ZM225.235 44.2054C224.9 44.3802 224.692 44.4756 224.5 44.6028C221.275 46.4467 218.081 48.3224 214.84 50.1346C212.7 51.3586 211.583 53.1707 211.567 55.5869C211.519 59.8312 211.535 64.0754 211.567 68.3197C211.583 70.6564 212.652 72.4526 214.68 73.6289C218.433 75.7908 222.169 77.9686 225.953 80.0986C227.806 81.1319 229.77 81.1796 231.638 80.1463C235.103 78.2229 238.52 76.2041 241.953 74.233C242.097 74.1535 242.209 74.0263 242.368 73.9151C242.161 73.772 242.017 73.6607 241.873 73.5654C238.935 71.8963 236.013 70.2113 233.075 68.5422C230.728 67.2069 228.812 65.4107 227.407 63.1058C225.937 60.6737 225.251 58.019 225.235 55.1895C225.235 51.8514 225.235 48.5079 225.235 45.1591C225.235 44.8889 225.235 44.6028 225.235 44.2054ZM256.995 73.9151C257.266 74.0899 257.458 74.2489 257.681 74.376C260.96 76.2518 264.244 78.1275 267.533 80.0032C269.529 81.1478 271.573 81.1637 273.553 80.0509C277.337 77.905 281.106 75.7272 284.874 73.5336C286.838 72.389 287.828 70.6246 287.844 68.3832C287.892 64.0913 287.892 59.7994 287.844 55.5074C287.828 53.1866 286.774 51.3904 284.698 50.2141C281.792 48.5609 278.902 46.8759 275.996 45.2068C275.437 44.8889 274.846 44.571 274.176 44.1895C274.176 44.6028 274.176 44.873 274.176 45.1591C274.176 48.5927 274.176 52.0421 274.16 55.4757C274.16 56.1751 274.112 56.8586 274 57.5421C273.234 62.2156 270.854 65.8399 266.751 68.2879C264.962 69.3529 263.142 70.3702 261.338 71.4035C259.917 72.2301 258.48 73.0567 256.995 73.9151ZM232.468 31.7588C232.788 31.5998 232.995 31.5203 233.187 31.4091C236.173 29.6923 239.159 27.9437 242.177 26.2746C247.174 23.5087 252.22 23.5405 257.218 26.2428C260.268 27.896 263.254 29.6923 266.256 31.425C266.447 31.5362 266.655 31.6157 266.894 31.727C266.91 31.5203 266.926 31.3932 266.926 31.266C266.937 27.2072 266.937 23.1484 266.926 19.0896C266.926 18.8035 266.879 18.5174 266.815 18.2471C266.415 16.4986 265.394 15.211 263.829 14.3208C260.156 12.2066 256.468 10.0925 252.779 7.9942C250.719 6.81789 248.659 6.84968 246.6 8.01009C245.498 8.63004 244.412 9.26588 243.31 9.88583C240.66 11.4118 237.993 12.9061 235.358 14.4798C233.474 15.6084 232.484 17.2934 232.468 19.5029C232.468 23.2862 232.468 27.0641 232.468 30.8368C232.468 31.107 232.468 31.3773 232.468 31.7588Z" fill="#071321"/>
<path d="M90.4042 40.1678C90.3882 39.1345 90.3882 38.1331 90.3403 37.1316C90.3084 36.6865 90.2445 36.2097 90.1008 35.7805C89.494 34.0001 87.514 33.3643 85.9492 34.4293C85.7895 34.5565 85.6298 34.6836 85.4063 34.8426C84.7037 34.2545 84.0011 33.6822 83.2507 33.0622C84.081 32.1244 85.1029 31.6475 86.2526 31.425C87.6098 31.1706 88.9351 31.2819 90.1806 31.8541C92.0488 32.7125 93.0708 34.2227 93.3262 36.2097C93.438 37.0998 93.4221 38.0059 93.438 38.8961C93.47 40.0088 93.6137 40.1837 94.7314 40.2314C94.8272 40.2314 94.939 40.2473 95.1306 40.279C95.1306 40.6765 95.1466 41.0738 95.1466 41.4712C95.1625 41.8845 95.1466 42.2978 95.1466 42.6952C94.5877 42.886 66.325 42.9496 64.9518 42.7747C64.9518 39.8658 64.9518 36.9409 64.9518 34.0478C62.6364 33.3643 60.8002 34.6677 60.7523 36.9886C60.7203 38.6577 60.7523 40.3267 60.7363 42.0117C60.7363 42.2502 60.7203 42.5045 60.7044 42.8065C60.4169 42.8224 60.1615 42.8383 59.906 42.8383C57.4576 42.8489 55.0039 42.8489 52.5449 42.8383C49.4472 42.8383 47.084 40.4698 47.0041 37.3065C46.9562 35.8758 47.3235 34.5724 48.2017 33.412C48.2656 33.3378 48.3348 33.2636 48.4093 33.1894C48.4412 33.1576 48.5051 33.1417 48.6328 33.0622C49.3035 33.6186 50.006 34.2068 50.7086 34.779C50.517 35.3036 50.2456 35.7805 50.1498 36.2891C49.8943 37.5449 50.0859 38.7212 51.0918 39.5955C51.4431 39.8975 51.9541 40.1678 52.4012 40.1996C54.1257 40.2632 55.8502 40.2155 57.6705 40.2155C57.6705 39.9134 57.6865 39.6432 57.7024 39.373C57.7344 38.2126 57.6545 37.0522 57.8142 35.9076C58.1815 33.412 60.1615 31.5839 62.6843 31.3932C64.329 31.2819 65.9896 31.3137 67.6343 31.2819C67.7301 31.2819 67.8259 31.3296 68.0016 31.3614C68.0016 34.2862 68.0016 37.2111 68.0016 40.1678C71.4825 40.1678 74.8836 40.1678 78.3326 40.1678C78.2688 38.912 78.2528 37.6562 78.1251 36.4163C78.0133 35.2241 77.1989 34.1591 75.7618 33.9524C75.0593 33.8412 74.4365 34.016 73.8617 34.3975C73.6861 34.5088 73.5423 34.6519 73.2869 34.8585C72.5843 34.2703 71.8657 33.6663 71.1153 33.0622C71.9296 32.1562 72.8877 31.6793 73.9575 31.4567C75.7459 31.0911 77.4544 31.2978 78.9713 32.3946C80.4563 33.4596 81.1589 34.9539 81.2547 36.7342C81.2866 37.529 81.2387 38.3238 81.2547 39.1186C81.2707 39.834 81.622 40.2155 82.2766 40.2155C84.9113 40.2314 87.546 40.2155 90.1806 40.2155C90.2764 40.2155 90.3722 40.1678 90.4042 40.1678Z" fill="#071321"/>
<path fill-rule="evenodd" clip-rule="evenodd" d="M172.031 40.0406C172.622 40.2632 175.192 40.3108 176.182 40.136C176.087 39.9134 175.991 39.7068 175.911 39.5001C175.113 37.4178 175.256 35.4308 176.55 33.5709C177.124 32.7125 177.939 32.1244 178.897 31.7429C180.382 31.1706 181.915 31.1229 183.416 31.6634C185.3 32.331 186.529 33.6504 186.96 35.6056C187.376 37.5131 187.12 39.2935 185.859 40.8354C184.821 42.1071 183.464 42.8065 181.835 42.8383C178.865 42.886 175.895 42.8383 172.925 42.8542C172.174 42.8542 171.584 42.5363 171.089 42.0117C170.993 41.9004 170.881 41.7892 170.721 41.5984C169.508 42.886 167.943 42.8701 166.346 42.8542C162.386 42.8224 158.442 42.8383 154.482 42.8542C153.923 42.8542 153.365 42.8701 152.886 42.4568C152.295 45.9857 150.602 47.5276 147.025 47.8297C147.025 47.0031 147.025 46.2083 147.025 45.334C147.153 45.2863 147.313 45.2068 147.473 45.175C148.878 44.8412 149.724 43.8398 149.756 42.3614C149.788 41.4713 149.756 40.5652 149.756 39.675C149.756 37.5343 149.756 35.399 149.756 33.2689C149.756 32.9987 149.756 32.7125 149.756 32.3946C150.826 32.3946 151.784 32.3946 152.854 32.3946C152.854 32.6966 152.854 32.9669 152.854 33.253C152.854 35.2029 152.859 37.1528 152.87 39.1027C152.87 39.2776 152.854 39.4684 152.87 39.6432C152.917 39.977 153.093 40.2155 153.476 40.2155C154.53 40.2155 155.584 40.2155 156.718 40.2155C156.718 37.7039 156.718 35.2559 156.718 32.6966C157.66 32.6331 158.554 32.6648 159.512 32.6807C159.512 33.555 159.512 34.3657 159.512 35.2877C159.975 35.0652 160.215 34.7631 160.454 34.4929C161.3 33.6027 162.29 32.9192 163.424 32.4582C165.404 31.6634 167.416 31.4568 169.412 32.3469C171.248 33.1735 172.222 34.6519 172.558 36.623C172.717 37.6562 172.558 38.61 172.19 39.5478C172.127 39.6909 172.095 39.8499 172.031 40.0406ZM160.135 40.1201C160.199 40.1519 160.231 40.1996 160.279 40.1996C162.594 40.2155 164.925 40.2473 167.24 40.1996C168.39 40.1837 169.204 39.4366 169.46 38.3079C169.699 37.3065 169.508 36.3686 168.949 35.5261C168.39 34.6678 167.512 34.3339 166.554 34.3816C165.452 34.4452 164.446 34.8585 163.552 35.5102C162.003 36.623 160.997 38.149 160.183 39.834C160.135 39.9293 160.151 40.0247 160.135 40.1201ZM178.53 37.0522C178.53 37.8946 178.673 38.4192 178.977 38.9756C179.855 40.6288 182.506 40.6129 183.416 39.214C184.23 37.9582 184.326 36.6706 183.655 35.3513C182.825 33.714 180.653 33.4279 179.36 34.7313C178.721 35.3831 178.498 36.1779 178.53 37.0522Z" fill="#071321"/>
<path fill-rule="evenodd" clip-rule="evenodd" d="M127.513 33.0146C128.295 33.6504 128.998 34.2227 129.701 34.7949C129.541 35.1446 129.365 35.4626 129.253 35.7964C128.774 37.1952 128.934 38.4987 130.02 39.5478C130.339 39.8658 130.85 40.1519 131.297 40.1837C132.702 40.2632 134.124 40.2155 135.609 40.2155C135.497 39.9452 135.417 39.7704 135.337 39.5796C134.491 37.227 134.666 35.0334 136.359 33.094C137.078 32.2516 138.02 31.7429 139.121 31.5044C141.165 31.0593 143.049 31.3296 144.694 32.7284C145.556 33.4755 146.115 34.4134 146.371 35.5261C146.802 37.4337 146.562 39.2458 145.301 40.8195C144.279 42.0912 142.906 42.8065 141.277 42.8224C137.924 42.8754 134.571 42.8807 131.217 42.8383C128.503 42.7906 126.156 40.4698 125.996 37.7834C125.916 36.3686 126.06 35.0016 126.906 33.8094C127.082 33.555 127.273 33.3166 127.513 33.0146ZM137.924 37.0998C137.876 37.7357 138.068 38.3874 138.419 39.0074C139.249 40.4062 141.309 40.6923 142.507 39.5637C143.656 38.4828 143.848 36.4322 142.954 35.1128C142.299 34.1591 141.181 33.7299 140.048 34.0001C138.738 34.318 137.94 35.4625 137.924 37.0998Z" fill="#071321"/>
<path fill-rule="evenodd" clip-rule="evenodd" d="M132.271 69.3688C132.207 69.5595 132.16 69.7185 132.112 69.8934C131.122 69.8934 130.148 69.8934 129.142 69.8934C129.142 64.0595 129.142 58.2575 129.142 52.4077C130.132 52.4077 131.122 52.4077 132.191 52.4077C132.191 54.5378 132.191 56.6361 132.191 58.8138C132.415 58.7184 132.527 58.6708 132.623 58.6072C134.491 57.3355 137.189 57.6852 138.866 58.9569C140.59 60.2604 141.517 61.993 141.485 64.1867C141.453 67.4136 139.058 69.7344 136.567 70.1954C135.257 70.4497 133.948 70.3861 132.766 69.6231C132.623 69.5278 132.447 69.4642 132.271 69.3688ZM138.419 63.7257C138.323 63.4078 138.211 62.7719 137.94 62.2156C136.95 60.2445 134.267 60.0855 133.07 61.532C132.032 62.7719 131.888 64.1549 132.431 65.6173C133.261 67.9223 136.088 67.9699 137.333 66.7618C138.1 66.0306 138.371 65.0928 138.419 63.7257Z" fill="#071321"/>
<path d="M109.214 40.2155C110.22 40.2155 111.194 40.2155 112.184 40.2155C112.775 40.2314 113.174 39.9293 113.318 39.373C113.43 38.9915 113.477 38.5623 113.493 38.1649C113.493 34.779 113.493 31.3773 113.493 27.9914C113.493 27.7053 113.493 27.4351 113.493 27.1171C114.483 27.1171 115.409 27.1171 116.384 27.1171C116.399 27.3079 116.431 27.4986 116.431 27.6894C116.442 31.3455 116.442 34.9963 116.431 38.6418C116.431 39.3889 116.352 40.136 116.032 40.8195C115.441 42.123 114.388 42.7747 112.982 42.8383C111.976 42.886 110.97 42.8701 109.965 42.8383C109.613 42.8224 109.278 42.6793 108.879 42.5681C108.655 44.1418 108.096 45.5565 106.787 46.5898C105.701 47.48 104.44 47.7979 103.003 47.8456C103.003 47.019 103.003 46.2083 103.003 45.334C103.194 45.2863 103.402 45.2068 103.625 45.1591C104.615 44.9366 105.27 44.3166 105.557 43.3629C105.733 42.8065 105.829 42.2184 105.829 41.6302C105.861 38.8643 105.845 36.0825 105.845 33.3007C105.845 33.0305 105.845 32.7443 105.845 32.4105C106.851 32.4105 107.793 32.4105 108.799 32.4105C108.815 32.6807 108.847 32.9669 108.847 33.2371C108.847 35.1658 108.847 37.0945 108.847 39.0233C108.847 39.4366 108.847 39.8499 109.214 40.2155Z" fill="#071321"/>
<path fill-rule="evenodd" clip-rule="evenodd" d="M152.263 58.8297C152.327 58.6072 152.359 58.4482 152.407 58.2575C153.381 58.2575 154.355 58.2575 155.313 58.2575C155.472 58.8456 155.536 68.1289 155.392 69.9093C154.913 69.9093 154.402 69.9252 153.907 69.9411C153.412 69.9411 152.933 69.9411 152.422 69.9411C152.375 69.7344 152.327 69.5595 152.295 69.3847C152.199 69.4006 152.119 69.3847 152.055 69.4324C148.478 71.9439 143.049 69.0032 143.034 64.1867C143.034 61.7069 144.039 59.7994 146.195 58.6072C148.095 57.558 150.059 57.4468 151.975 58.6708C152.055 58.7185 152.151 58.7661 152.263 58.8297ZM146.067 64.0595C146.099 64.0701 146.126 64.0754 146.147 64.0754C146.147 64.2503 146.131 64.441 146.147 64.6159C146.243 65.9988 147.185 67.1274 148.478 67.4613C149.836 67.7951 151.177 67.2705 151.88 66.0783C152.486 65.0133 152.534 63.8847 152.183 62.7242C151.8 61.4844 150.65 60.6101 149.373 60.5783C147.983 60.5465 146.834 61.2936 146.387 62.5812C146.227 63.0422 146.163 63.5667 146.067 64.0595Z" fill="#071321"/>
<path fill-rule="evenodd" clip-rule="evenodd" d="M59.6345 58.8615C59.6824 58.6231 59.7303 58.4641 59.7782 58.2575C60.7363 58.2575 61.6944 58.2575 62.7163 58.2575C62.7163 62.1361 62.7163 65.9829 62.7163 69.8775C61.7582 69.8775 60.8161 69.8775 59.8102 69.8775C59.7623 69.7344 59.6984 69.5595 59.6026 69.2893C57.9899 70.4974 56.2015 70.6087 54.3812 69.9411C52.5609 69.2893 51.2994 67.954 50.7086 66.126C49.9102 63.6303 50.3893 61.3572 52.3054 59.4815C53.2794 58.5277 54.5089 58.019 55.8981 57.8601C57.2873 57.6852 58.4849 58.0826 59.6345 58.8615ZM59.8102 64.0913C59.6665 63.5349 59.6026 62.9468 59.395 62.4063C58.9479 61.2936 58.0537 60.7213 56.9041 60.5942C55.7863 60.4829 54.8123 60.8485 54.1417 61.8023C53.3433 62.9627 53.2634 64.2344 53.7265 65.5378C54.1417 66.6824 54.972 67.3659 56.1696 67.509C57.4949 67.6679 58.5647 67.2228 59.2513 66.0465C59.5866 65.4425 59.7463 64.8066 59.8102 64.0913Z" fill="#071321"/>
<path fill-rule="evenodd" clip-rule="evenodd" d="M88.7914 58.7184C88.8234 58.6072 88.8553 58.4641 88.9192 58.2734C89.8613 58.2734 90.8353 58.2734 91.8093 58.2734C91.985 58.782 92.0329 68.717 91.8732 69.8934C90.9151 69.8934 89.9411 69.8934 88.9351 69.8934C88.8819 69.7344 88.8287 69.5648 88.7755 69.3847C88.7116 69.4006 88.6318 69.4006 88.5839 69.4324C85.5181 71.626 80.5042 69.7185 79.6739 65.2994C79.2588 63.0581 79.8176 61.0552 81.5102 59.4815C83.0112 58.0985 84.8155 57.5262 86.8594 57.9554C87.4981 58.0985 88.0889 58.4323 88.7914 58.7184ZM85.8055 67.5249C87.1947 67.5249 88.2166 66.7936 88.6797 65.5061C89.031 64.5364 89.031 63.5985 88.6797 62.6448C88.2645 61.4685 87.4342 60.7531 86.2047 60.6101C84.9752 60.467 83.9213 60.8644 83.2187 61.9771C82.7237 62.7401 82.5641 63.5985 82.6599 64.4728C82.8994 66.6506 84.3365 67.5725 85.8055 67.5249Z" fill="#071321"/>
<path d="M101.406 52.3918C102.38 52.3918 103.306 52.3918 104.328 52.3918C104.339 53.441 104.344 54.4848 104.344 55.5233C104.344 56.5407 104.344 57.5739 104.344 58.6867C104.551 58.5913 104.711 58.5277 104.855 58.4482C107.058 56.9699 110.986 58.1621 111.721 61.2459C111.897 61.9294 112.024 62.6607 112.024 63.3601C112.072 65.363 112.04 67.3659 112.04 69.3688C112.04 69.5278 112.024 69.6708 112.008 69.8775C111.018 69.8775 110.044 69.8775 108.99 69.8775C108.975 69.6231 108.943 69.3529 108.943 69.0986C108.943 67.2069 108.959 65.3471 108.943 63.4714C108.943 63.0104 108.879 62.5494 108.783 62.0884C108.607 61.2459 108.064 60.769 107.218 60.6101C105.893 60.3716 104.759 61.1029 104.52 62.4063C104.408 62.9309 104.36 63.4714 104.36 64.0118C104.328 65.7127 104.344 67.3977 104.344 69.0986C104.344 69.3529 104.344 69.6072 104.344 69.8934C103.322 69.8934 102.38 69.8934 101.406 69.8934C101.406 64.0595 101.406 58.2734 101.406 52.3918Z" fill="#071321"/>
<path d="M172.238 52.3918C173.212 52.3918 174.138 52.3918 175.16 52.3918C175.176 53.4569 175.176 54.5378 175.176 55.6028C175.176 56.7049 175.176 57.8071 175.176 58.9092C175.176 59.9901 175.176 61.0711 175.176 62.2792C175.416 62.1043 175.576 62.0089 175.703 61.8977C176.741 60.8803 177.779 59.863 178.769 58.8297C179.2 58.4005 179.631 58.178 180.27 58.2098C181.26 58.2575 182.266 58.2257 183.352 58.3528C181.723 59.9424 180.094 61.5161 178.418 63.1375C180.174 65.3789 181.931 67.5725 183.783 69.9411C183.016 69.9411 182.41 69.9411 181.803 69.9411C181.212 69.9252 180.541 70.0682 180.046 69.8457C179.583 69.6231 179.312 69.0191 178.961 68.574C178.082 67.4613 177.22 66.3485 176.294 65.1881C175.959 65.522 175.607 65.8081 175.352 66.1419C175.224 66.3009 175.192 66.5711 175.192 66.7777C175.16 67.5566 175.176 68.3197 175.176 69.0986C175.176 69.3529 175.176 69.5913 175.176 69.8934C174.154 69.8934 173.212 69.8934 172.238 69.8934C172.238 64.0595 172.238 58.2734 172.238 52.3918Z" fill="#071321"/>
<path d="M158.49 58.2257C159.4 58.2257 160.279 58.2098 161.157 58.2416C161.316 58.2416 161.46 58.4641 161.588 58.5595C162.179 58.3528 162.785 58.0667 163.424 57.9236C165.5 57.4468 168.534 58.7343 168.965 61.7864C169.013 62.1361 169.093 62.4858 169.093 62.8514C169.109 65.1404 169.109 67.4136 169.109 69.7026C169.109 69.7503 169.077 69.798 169.045 69.8934C168.087 69.8934 167.129 69.8934 166.075 69.8934C166.059 69.6072 166.043 69.337 166.043 69.0668C166.027 67.1751 166.043 65.2676 166.027 63.3601C166.027 62.8832 165.963 62.3904 165.851 61.9294C165.676 61.2459 165.229 60.8326 164.526 60.6737C163.089 60.3081 161.939 60.9916 161.652 62.4381C161.54 62.8991 161.492 63.3919 161.492 63.8847C161.476 65.6014 161.492 67.3182 161.492 69.0509C161.492 69.3052 161.492 69.5595 161.492 69.8775C160.486 69.8775 159.512 69.8775 158.49 69.8775C158.49 66.0306 158.49 62.1997 158.49 58.2257Z" fill="#071321"/>
<path d="M92.4001 76.0769C92.4001 75.1867 92.4001 74.376 92.4001 73.6766C93.0069 73.3746 93.6137 73.1997 94.0767 72.8341C94.9709 72.1665 95.2104 71.165 95.2104 70.0841C95.1998 66.4492 95.1998 62.809 95.2104 59.1635C95.2104 58.8774 95.2104 58.6072 95.2104 58.2734C96.2324 58.2734 97.1904 58.2734 98.2123 58.2734C98.2283 58.5277 98.2443 58.7502 98.2443 58.9728C98.2602 62.8514 98.2762 66.7142 98.2443 70.5928C98.2283 73.3587 96.0407 75.7908 93.0069 76.1087C92.8312 76.1246 92.6556 76.0928 92.4001 76.0769Z" fill="#071321"/>
<path d="M65.798 52.36C66.5485 52.36 67.2351 52.36 67.9377 52.36C68.2092 52.36 68.4966 52.36 68.8159 52.36C68.8159 58.2257 68.8159 64.0118 68.8159 69.8775C67.8259 69.8775 66.8359 69.8775 65.798 69.8775C65.798 64.0754 65.798 58.2734 65.798 52.36Z" fill="#071321"/>
<path d="M119.13 27.0853C120.136 27.0853 121.094 27.0853 122.036 27.0853C122.212 27.6258 122.26 41.7415 122.084 42.8383C121.605 42.8383 121.126 42.8383 120.647 42.8383C120.152 42.8383 119.673 42.8383 119.13 42.8383C119.13 37.5926 119.13 32.3787 119.13 27.0853Z" fill="#071321"/>
<path d="M101.821 42.8065C100.847 42.8065 99.9209 42.8065 99.0107 42.8065C98.8351 42.2819 98.7872 28.2775 98.9469 27.1171C99.8889 27.1171 100.815 27.1171 101.821 27.1171C101.821 32.331 101.821 37.529 101.821 42.8065Z" fill="#071321"/>
<path d="M74.7399 69.9569C73.6861 69.9569 72.728 69.9569 71.6901 69.9569C71.6741 69.7026 71.6422 69.4801 71.6422 69.2575C71.6422 67.2069 71.6262 65.1404 71.6582 63.0899C71.6741 62.3904 71.7699 61.6592 71.9615 60.9757C72.3927 59.5133 73.3986 58.5754 74.9156 58.2257C76.0972 57.9395 77.2947 57.8283 78.5242 58.1303C78.5242 58.941 78.5242 59.7517 78.5242 60.6578C78.157 60.6737 77.8057 60.6737 77.4544 60.6896C77.1191 60.7055 76.7838 60.6896 76.4485 60.7372C75.2828 60.8803 74.7559 61.4844 74.7399 62.6925C74.7399 64.6795 74.7399 66.6506 74.7399 68.6217C74.7399 69.0509 74.7399 69.4801 74.7399 69.9569Z" fill="#071321"/>
<path d="M115.122 58.2575C116.112 58.2575 117.054 58.2575 118.044 58.2575C118.044 62.152 118.044 65.9988 118.044 69.8934C117.07 69.8934 116.128 69.8934 115.186 69.8934C115.01 69.3847 114.946 59.4497 115.122 58.2575Z" fill="#071321"/>
<path d="M116.575 56.1274C115.537 56.1274 114.675 55.3008 114.675 54.2676C114.675 53.2343 115.537 52.4077 116.575 52.4077C117.629 52.4077 118.491 53.2343 118.491 54.2676C118.491 55.3008 117.629 56.1274 116.575 56.1274Z" fill="#071321"/>
<path d="M96.7433 56.1115C95.6575 56.2705 94.7793 55.1418 94.8272 54.2676C94.8911 53.2343 95.6575 52.4236 96.6954 52.4077C97.8132 52.3918 98.6115 53.1548 98.6115 54.2517C98.6115 55.4121 97.9249 56.1115 96.7433 56.1115Z" fill="#071321"/>
<path d="M52.7844 48.8629C51.8104 48.8629 51.028 48.084 51.028 47.1461C51.028 46.1924 51.8104 45.4135 52.7844 45.4135C53.7584 45.4135 54.5409 46.1924 54.5409 47.1461C54.5409 48.084 53.7584 48.8629 52.7844 48.8629Z" fill="#071321"/>
<path d="M57.7503 48.8629C56.7763 48.8629 55.9939 48.084 55.9939 47.1461C55.9939 46.1924 56.7763 45.4135 57.7503 45.4135C58.7244 45.4135 59.5068 46.1924 59.5068 47.1461C59.5068 48.084 58.7244 48.8629 57.7503 48.8629Z" fill="#071321"/>
<path d="M135.816 29.2154C135.784 30.2328 135.082 30.8527 133.98 30.8209C133.006 30.7891 132.319 30.0261 132.351 29.0564C132.383 28.1027 133.166 27.3715 134.108 27.3715C135.066 27.3556 135.928 28.1663 135.816 29.2154Z" fill="#071321"/>
<path d="M88.2166 48.8788C87.2585 48.8788 86.4761 48.0999 86.4761 47.1461C86.4761 46.1765 87.2585 45.3976 88.2166 45.3976C89.1747 45.3976 89.9411 46.1765 89.9411 47.1461C89.9411 48.0999 89.1747 48.8788 88.2166 48.8788Z" fill="#071321"/>
</svg>
