<svg width="342" height="88" viewBox="0 0 342 88" fill="none" xmlns="http://www.w3.org/2000/svg">
<path d="M138.471 31.96C138.471 33.7709 138.666 35.2392 139.009 36.3159C139.401 37.3927 139.89 38.5673 140.575 39.8398C140.82 40.2314 140.918 40.6229 140.918 40.9655C140.918 41.455 140.624 41.9444 139.988 42.4338L136.904 44.4894C136.464 44.7831 136.023 44.9299 135.632 44.9299C135.142 44.9299 134.653 44.6852 134.164 44.2447C133.478 43.5106 132.891 42.7275 132.402 41.9444C131.912 41.1124 131.423 40.1824 130.884 39.0567C127.067 43.5595 122.27 45.8109 116.495 45.8109C112.384 45.8109 109.105 44.6363 106.706 42.287C104.308 39.9377 103.085 36.8053 103.085 32.8899C103.085 28.7297 104.553 25.3526 107.538 22.8076C110.524 20.2625 114.488 18.99 119.53 18.99C121.194 18.99 122.907 19.1368 124.718 19.3815C126.528 19.6263 128.388 20.0178 130.346 20.4583V16.8854C130.346 13.1657 129.563 10.5717 128.046 9.05451C126.48 7.53726 123.837 6.80311 120.068 6.80311C118.355 6.80311 116.593 6.99889 114.782 7.43938C112.971 7.87987 111.209 8.41824 109.496 9.10345C108.713 9.44605 108.126 9.64182 107.783 9.73971C107.441 9.8376 107.196 9.88654 107 9.88654C106.315 9.88654 105.972 9.39711 105.972 8.3693V5.97108C105.972 5.18799 106.07 4.60067 106.315 4.25806C106.56 3.91546 107 3.57286 107.685 3.23026C109.398 2.34928 111.454 1.61513 113.852 1.02781C116.25 0.391546 118.795 0.0978865 121.487 0.0978865C127.312 0.0978865 131.57 1.41935 134.31 4.06229C137.002 6.70523 138.373 10.7186 138.373 16.1023V31.96H138.471ZM118.6 39.3993C120.215 39.3993 121.879 39.1057 123.641 38.5184C125.403 37.931 126.969 36.8543 128.29 35.386C129.074 34.4561 129.661 33.4283 129.954 32.2536C130.248 31.079 130.444 29.6596 130.444 27.9956V25.9399C129.025 25.5973 127.507 25.3037 125.941 25.1079C124.375 24.9121 122.858 24.8142 121.34 24.8142C118.061 24.8142 115.663 25.4505 114.048 26.772C112.433 28.0934 111.65 29.9533 111.65 32.4004C111.65 34.7008 112.237 36.4138 113.461 37.5884C114.635 38.812 116.348 39.3993 118.6 39.3993ZM157.901 44.6852C157.02 44.6852 156.433 44.5384 156.041 44.1958C155.65 43.9021 155.307 43.2169 155.013 42.287L143.512 4.45384C143.218 3.47497 143.071 2.83871 143.071 2.49611C143.071 1.71301 143.463 1.27253 144.246 1.27253H149.042C149.972 1.27253 150.609 1.41935 150.951 1.76196C151.343 2.05562 151.636 2.74082 151.93 3.67075L160.152 36.0712L167.788 3.67075C168.032 2.69188 168.326 2.05562 168.718 1.76196C169.109 1.4683 169.794 1.27253 170.675 1.27253H174.591C175.521 1.27253 176.157 1.41935 176.548 1.76196C176.94 2.05562 177.283 2.74082 177.478 3.67075L185.211 36.4627L193.679 3.67075C193.972 2.69188 194.315 2.05562 194.658 1.76196C195.049 1.4683 195.685 1.27253 196.566 1.27253H201.118C201.901 1.27253 202.342 1.66407 202.342 2.49611C202.342 2.74082 202.293 2.98554 202.244 3.2792C202.195 3.57286 202.097 3.9644 201.901 4.50278L190.106 42.3359C189.812 43.3148 189.47 43.9511 189.078 44.2447C188.686 44.5384 188.05 44.7342 187.218 44.7342H183.009C182.079 44.7342 181.443 44.5873 181.051 44.2447C180.66 43.9021 180.317 43.2659 180.121 42.287L172.535 10.7186L164.998 42.238C164.753 43.2169 164.46 43.8532 164.068 44.1958C163.676 44.5384 162.991 44.6852 162.11 44.6852H157.901ZM220.793 46.0067C218.248 46.0067 215.703 45.713 213.256 45.1257C210.809 44.5384 208.9 43.9021 207.627 43.168C206.844 42.7275 206.306 42.238 206.11 41.7976C205.914 41.3571 205.817 40.8676 205.817 40.4271V37.931C205.817 36.9032 206.208 36.4138 206.942 36.4138C207.236 36.4138 207.53 36.4627 207.823 36.5606C208.117 36.6585 208.557 36.8543 209.047 37.0501C210.711 37.7842 212.522 38.3715 214.431 38.7631C216.388 39.1546 218.297 39.3504 220.255 39.3504C223.338 39.3504 225.736 38.812 227.401 37.7353C229.065 36.6585 229.946 35.0923 229.946 33.0857C229.946 31.7152 229.505 30.5895 228.624 29.6596C227.743 28.7297 226.079 27.8977 223.681 27.1146L216.584 24.9121C213.011 23.7864 210.368 22.1224 208.753 19.9199C207.138 17.7664 206.306 15.3682 206.306 12.8231C206.306 10.7675 206.746 8.95662 207.627 7.39043C208.508 5.82425 209.683 4.45384 211.151 3.37709C212.62 2.25139 214.284 1.41935 216.241 0.832036C218.199 0.244716 220.255 0 222.408 0C223.485 0 224.611 0.0489433 225.688 0.195773C226.813 0.342603 227.841 0.538376 228.869 0.734149C229.848 0.978865 230.778 1.22358 231.659 1.51724C232.54 1.8109 233.225 2.10456 233.714 2.39822C234.399 2.78977 234.889 3.18131 235.183 3.6218C235.476 4.01335 235.623 4.55172 235.623 5.23693V7.53726C235.623 8.56507 235.231 9.10345 234.497 9.10345C234.106 9.10345 233.47 8.90768 232.637 8.51613C229.848 7.2436 226.715 6.60734 223.24 6.60734C220.451 6.60734 218.248 7.04783 216.731 7.97775C215.214 8.90768 214.431 10.327 214.431 12.3337C214.431 13.7041 214.92 14.8788 215.899 15.8087C216.878 16.7386 218.689 17.6685 221.283 18.5006L228.233 20.703C231.756 21.8287 234.302 23.3949 235.819 25.4016C237.336 27.4082 238.07 29.7086 238.07 32.2536C238.07 34.3582 237.63 36.267 236.798 37.931C235.917 39.5951 234.742 41.0634 233.225 42.238C231.708 43.4616 229.897 44.3426 227.792 44.9789C225.59 45.6641 223.289 46.0067 220.793 46.0067Z" fill="white"/>
<path fill-rule="evenodd" clip-rule="evenodd" d="M230.043 69.7931C213.941 81.6863 190.546 88 170.431 88C142.239 88 116.838 77.5751 97.6519 60.2492C96.1347 58.8788 97.5051 57.0189 99.316 58.0957C120.068 70.1357 145.665 77.4283 172.144 77.4283C190.008 77.4283 209.634 73.7086 227.694 66.0734C230.386 64.8498 232.686 67.8354 230.043 69.7931Z" fill="white"/>
<path fill-rule="evenodd" clip-rule="evenodd" d="M236.749 62.158C234.693 59.515 223.142 60.8854 217.906 61.5217C216.339 61.7175 216.095 60.3471 217.514 59.3193C226.715 52.8587 241.839 54.7186 243.601 56.8721C245.363 59.0745 243.111 74.198 234.497 81.4416C233.176 82.5673 231.903 81.98 232.491 80.5117C234.448 75.6663 238.804 64.752 236.749 62.158Z" fill="white"/>
</svg>
