<svg width="257" height="120" viewBox="0 0 257 120" fill="none" xmlns="http://www.w3.org/2000/svg">
<path d="M254.841 0L244.449 6V12H256.449V8H248.985L256.841 3.4641L254.841 0Z" fill="black"/>
<path d="M166.449 15V21H141.449V15L166.449 15Z" fill="black"/>
<path fill-rule="evenodd" clip-rule="evenodd" d="M220.949 26.5C214.046 26.5 208.449 32.0964 208.449 39C208.449 45.9036 214.046 51.5 220.949 51.5H232.852C231.41 55.5782 227.521 58.5 222.949 58.5H211.949V65.5H222.949C232.614 65.5 240.449 57.665 240.449 48V26.5H220.949ZM220.949 33.5H233.449V44.5H220.949C217.912 44.5 215.449 42.0376 215.449 39C215.449 35.9624 217.912 33.5 220.949 33.5Z" fill="black"/>
<path fill-rule="evenodd" clip-rule="evenodd" d="M137.607 39C137.607 32.0964 143.203 26.5 150.107 26.5H166.398V48C166.398 57.665 158.563 65.5 148.898 65.5H111C96.0883 65.5 84 53.4117 84 38.5H91C91 49.5457 99.9543 58.5 111 58.5H148.898C153.47 58.5 157.359 55.5782 158.801 51.5H150.107C143.203 51.5 137.607 45.9036 137.607 39ZM159.398 33.5H150.107C147.069 33.5 144.607 35.9624 144.607 39C144.607 42.0376 147.069 44.5 150.107 44.5H159.398V33.5Z" fill="black"/>
<path d="M253.449 15H246.449V52H253.449V15Z" fill="black"/>
<path d="M174.449 15H181.449V52H174.449V15Z" fill="black"/>
<path d="M194.317 26.5V47.3678C194.317 53.4429 189.392 58.3678 183.317 58.3678H181.449V66.3678H183.317C193.81 66.3678 202.317 57.8612 202.317 47.3678V26.5H194.317Z" fill="black"/>
<path fill-rule="evenodd" clip-rule="evenodd" d="M96.9492 78C90.0457 78 84.4492 83.5964 84.4492 90.5C84.4492 97.4036 90.0457 103 96.9492 103H109.449V106.5H116.449V78H96.9492ZM96.9492 85H109.449V96H96.9492C93.9117 96 91.4492 93.5376 91.4492 90.5C91.4492 87.4624 93.9117 85 96.9492 85Z" fill="black"/>
<path fill-rule="evenodd" clip-rule="evenodd" d="M200.874 78C193.971 78 188.374 83.5964 188.374 90.5C188.374 97.4036 193.971 103 200.874 103H213.374V106.5H220.374V78H200.874ZM200.874 85H213.374V96H200.874C197.837 96 195.374 93.5376 195.374 90.5C195.374 87.4624 197.837 85 200.874 85Z" fill="black"/>
<path fill-rule="evenodd" clip-rule="evenodd" d="M224.374 90.5C224.374 83.5964 229.971 78 236.874 78H256.374V120H249.374V103H236.874C229.971 103 224.374 97.4036 224.374 90.5ZM249.374 85H236.874C233.837 85 231.374 87.4624 231.374 90.5C231.374 93.5376 233.837 96 236.874 96H249.374V85Z" fill="black"/>
<path d="M121.449 95.7582C121.449 102.058 126.557 107.166 132.857 107.166C135.982 107.166 138.814 105.909 140.874 103.873C142.934 105.909 145.766 107.166 148.891 107.166C155.192 107.166 160.299 102.058 160.299 95.7582V78H153.299V95.7582C153.299 98.1924 151.326 100.166 148.891 100.166C146.457 100.166 144.484 98.1924 144.484 95.7582V78H137.264V95.7582C137.264 98.1924 135.291 100.166 132.857 100.166C130.423 100.166 128.449 98.1924 128.449 95.7582V78H121.449V95.7582Z" fill="black"/>
<path d="M171.874 78V79.665C173.802 78.6037 176.018 78 178.374 78H184.189V85H178.374C174.784 85 171.874 87.9102 171.874 91.5V107.166H164.874V91.5C164.874 91.3326 164.877 91.1659 164.883 91H164.874V78H171.874Z" fill="black"/>
<path d="M3.71076 73.1441C1.47871 72.3156 -2.00182e-06 70.2036 -2.10496e-06 67.8441L-4.38577e-06 15.6652C-4.55708e-06 11.7461 3.92665 9.01295 7.65282 10.3384L57.2153 27.968C59.4858 28.7756 61 30.9067 61 33.2948L61 94.4081L3.71076 73.1441Z" fill="#43A2FE"/>
<path d="M34.2663 52.1756C30.1193 54.9902 27.6406 59.6473 27.6406 64.6242L27.6406 110.33C27.6406 114.834 32.6972 117.534 36.5 115.061L58.4219 100.802C60.031 99.7553 61 97.9774 61 96.0716L61 34.0311L34.2663 52.1756Z" fill="#26EAB8"/>
</svg>
