<svg width="305" height="106" viewBox="0 0 305 106" fill="none" xmlns="http://www.w3.org/2000/svg">
<path d="M66.038 19.4459C64.8084 19.4459 63.7544 19.0067 62.8761 18.1284C61.9978 17.215 61.5586 16.1434 61.5586 14.9138C61.5586 13.6841 61.9978 12.6477 62.8761 11.8045C63.7544 10.9262 64.8084 10.4871 66.038 10.4871C67.2677 10.4871 68.3216 10.9262 69.2 11.8045C70.0783 12.6477 70.5174 13.6841 70.5174 14.9138C70.5174 16.1434 70.0783 17.215 69.2 18.1284C68.3216 19.0067 67.2677 19.4459 66.038 19.4459ZM76.1035 19.4459C74.8739 19.4459 73.8199 19.0067 72.9416 18.1284C72.0633 17.215 71.6241 16.1434 71.6241 14.9138C71.6241 13.6841 72.0633 12.6477 72.9416 11.8045C73.8199 10.9262 74.8739 10.4871 76.1035 10.4871C77.3332 10.4871 78.3871 10.9262 79.2654 11.8045C80.1438 12.6477 80.5829 13.6841 80.5829 14.9138C80.5829 16.1434 80.1438 17.215 79.2654 18.1284C78.3871 19.0067 77.3332 19.4459 76.1035 19.4459ZM54.9713 39.7349C54.9713 36.2568 55.7442 33.2705 57.29 30.7761C58.871 28.2817 60.9087 26.4197 63.4031 25.1901C65.9326 23.9253 68.6203 23.2929 71.466 23.2929C74.2766 23.2929 76.9291 23.9253 79.4235 25.1901C81.918 26.4197 83.9381 28.2817 85.4839 30.7761C87.0297 33.2354 87.8027 36.2217 87.8027 39.7349V55.2811H19.4759C14.1007 55.2811 9.99015 54.1744 7.14442 51.9611C4.33381 49.7477 2.50692 47.3763 1.66373 44.8467C0.855685 42.2821 0.45166 40.0687 0.45166 38.2067V33.3057L8.61998 30.4072V37.7324C8.61998 40.5079 9.32264 43.3536 10.7279 46.2696C12.1332 49.1505 15.0492 50.5909 19.4759 50.5909H63.9301L54.9713 44.2143V39.7349ZM79.6343 39.7349C79.6343 37.2405 79.2479 35.115 78.475 33.3584C77.702 31.5666 76.6832 30.2316 75.4184 29.3533C74.1537 28.4398 72.8186 27.9831 71.4133 27.9831C69.9729 27.9831 68.6203 28.4398 67.3555 29.3533C66.0907 30.2316 65.0719 31.5666 64.299 33.3584C63.526 35.115 63.1396 37.2405 63.1396 39.7349V42.7388L73.6794 50.5909H79.6343V39.7349Z" fill="white"/>
<path d="M93.046 15.23H101.004V55.2811H93.046V15.23Z" fill="white"/>
<path d="M105.456 55.4731C108.477 55.4731 110.691 54.5596 112.096 52.7327C113.536 50.9058 114.257 48.0952 114.257 44.3009V15.5273H122.214V44.3009C122.214 49.5005 120.862 53.3124 118.156 55.7366C115.451 58.1959 111.218 59.4255 105.456 59.4255V55.4731Z" fill="white"/>
<path d="M160.307 44.3009C160.307 49.5005 158.919 53.3124 156.143 55.7366C153.403 58.1959 149.134 59.4255 143.338 59.4255V55.4731C146.183 55.4731 148.309 54.6475 149.714 52.9962C151.155 51.3801 151.945 48.9033 152.086 45.5657H128.529V30.0195C128.529 26.9279 129.267 24.2929 130.743 22.1147C132.253 19.9365 134.203 18.3028 136.592 17.2137C139.016 16.0895 141.598 15.5273 144.339 15.5273C147.079 15.5273 149.661 16.0895 152.086 17.2137C154.545 18.3028 156.53 19.9365 158.041 22.1147C159.551 24.2578 160.307 26.8576 160.307 29.9141V44.3009ZM136.697 40.8755H152.138V30.0195C152.138 27.9467 151.769 26.1725 151.032 24.6969C150.329 23.2214 149.38 22.1147 148.186 21.3769C147.026 20.6391 145.779 20.2702 144.444 20.2702C143.109 20.2702 141.844 20.6391 140.65 21.3769C139.455 22.1147 138.489 23.2214 137.751 24.6969C137.049 26.1725 136.697 27.9467 136.697 30.0195V40.8755Z" fill="white"/>
<path d="M165.61 9.0115H167.929L167.876 6.06037C167.841 4.23347 168.473 2.77547 169.773 1.68636C171.073 0.562121 172.584 0 174.305 0C175.921 0 177.327 0.491855 178.521 1.47556L176.202 4.7429C175.57 4.32131 174.973 4.11051 174.411 4.11051C173.919 4.11051 173.515 4.28617 173.198 4.6375C172.917 4.98882 172.794 5.48068 172.83 6.11307L172.882 9.0115H179.997V13.0693L165.61 13.122V9.0115ZM169.035 15.23H176.993V55.2811H169.035V15.23Z" fill="white"/>
<path d="M14.4395 77.5953H22.0808C22.0808 74.9604 21.3957 73.0105 20.0256 71.7457C18.6554 70.4458 16.8988 69.7959 14.7557 69.7959C13.2098 69.7959 11.5937 70.0769 9.90739 70.6391C8.25615 71.1309 6.86842 71.7809 5.74418 72.5889L3.79432 69.3216C4.67263 68.7243 5.55095 68.25 6.42926 67.8987C7.7643 67.3366 8.76558 66.9677 9.4331 66.792C10.4519 66.511 11.4708 66.3002 12.4896 66.1596C13.7544 66.0191 14.6678 65.9489 15.23 65.9489C17.619 65.9489 19.6742 66.2299 21.3957 66.792C23.2226 67.3893 24.7333 68.1798 25.9278 69.1635C27.1926 70.2175 28.1412 71.4647 28.7736 72.9051C29.3708 74.205 29.6695 75.7684 29.6695 77.5953V95.9872H14.4395C9.45066 95.9872 5.81444 95.2143 3.53082 93.6685C1.17694 92.1929 0 89.9093 0 86.8176C0 83.7259 1.17694 81.4248 3.53082 79.9141C5.88471 78.3682 9.52093 77.5953 14.4395 77.5953ZM9.74929 83.3922C8.69531 84.13 8.16832 85.1312 8.16832 86.396C8.16832 87.8013 8.71288 88.9783 9.80199 89.9268C10.8911 90.8403 12.4369 91.297 14.4395 91.297H22.0808V82.2855H14.4395C12.4018 82.2855 10.8384 82.6544 9.74929 83.3922Z" fill="white"/>
<path d="M51.1348 95.9872H41.8071L34.4292 65.9489H42.5976L47.8674 91.5078H48.3417L55.1399 65.9489H63.2555L70.1064 91.5078H70.5807L73.2156 65.9489H81.3839L76.641 95.9872H67.3133L59.4612 70.2702H58.9869L51.1348 95.9872Z" fill="white"/>
<path d="M109.39 65.9489V70.6391H102.382C99.5709 70.6391 97.5157 71.2714 96.2158 72.5362C94.951 73.801 94.3186 75.7508 94.3186 78.3858V95.9872H86.1503V77.7534C86.1503 69.8837 91.5607 65.9489 102.382 65.9489H109.39Z" fill="white"/>
<path d="M128.535 77.5953H136.176C136.176 74.9604 135.491 73.0105 134.121 71.7457C132.75 70.4458 130.994 69.7959 128.851 69.7959C127.305 69.7959 125.689 70.0769 124.002 70.6391C122.351 71.1309 120.964 71.7809 119.839 72.5889L117.889 69.3216C118.768 68.7243 119.646 68.25 120.524 67.8987C121.859 67.3366 122.861 66.9677 123.528 66.792C124.547 66.511 125.566 66.3002 126.585 66.1596C127.849 66.0191 128.763 65.9489 129.325 65.9489C131.714 65.9489 133.769 66.2299 135.491 66.792C137.318 67.3893 138.828 68.1798 140.023 69.1635C141.288 70.2175 142.236 71.4647 142.869 72.9051C143.466 74.205 143.765 75.7684 143.765 77.5953V95.9872H128.535C123.546 95.9872 119.91 95.2143 117.626 93.6685C115.272 92.1929 114.095 89.9093 114.095 86.8176C114.095 83.7259 115.272 81.4248 117.626 79.9141C119.98 78.3682 123.616 77.5953 128.535 77.5953ZM123.844 83.3922C122.79 84.13 122.263 85.1312 122.263 86.396C122.263 87.8013 122.808 88.9783 123.897 89.9268C124.986 90.8403 126.532 91.297 128.535 91.297H136.176V82.2855H128.535C126.497 82.2855 124.933 82.6544 123.844 83.3922Z" fill="white"/>
<path d="M164.439 65.9489H179.09V106H170.921V95.9872H164.439C159.907 95.9872 156.464 95.0211 154.11 93.0888C151.757 91.1565 150.228 89.1012 149.526 86.923C148.858 84.7096 148.524 82.8476 148.524 81.3369C148.524 79.9316 148.928 78.0345 149.736 75.6454C150.58 73.2564 152.178 71.0431 154.532 69.0054C156.921 66.9677 160.223 65.9489 164.439 65.9489ZM170.921 70.4283H164.439C161.067 70.4283 158.871 71.6755 157.852 74.1699C156.833 76.6292 156.324 79.0182 156.324 81.3369C156.324 83.4449 156.851 85.6407 157.905 87.9243C158.994 90.1728 161.172 91.297 164.439 91.297H170.921V70.4283Z" fill="white"/>
<path fill-rule="evenodd" clip-rule="evenodd" d="M199 106L199 1.09281L252 1.09281L303.907 53L303.907 106L199 106ZM251.454 27.3196L225.227 27.3196L225.227 79.7732L277.68 79.7732L277.68 53.5464L251.454 53.5464L251.454 27.3196Z" fill="#43A2FE"/>
<path fill-rule="evenodd" clip-rule="evenodd" d="M303 9.83507C303 14.1622 299.492 17.6701 295.165 17.6701C290.838 17.6701 287.33 14.1622 287.33 9.83507C287.33 5.50789 290.838 2.00002 295.165 2.00002C299.492 2.00002 303 5.50789 303 9.83507ZM305 9.83507C305 15.2668 300.597 19.6701 295.165 19.6701C289.733 19.6701 285.33 15.2668 285.33 9.83507C285.33 4.40332 289.733 1.52588e-05 295.165 1.52588e-05C300.597 1.52588e-05 305 4.40332 305 9.83507ZM295.252 5.47544L291.887 5.46393V14.2062H293.625V10.6173H295.364L297.798 14.2062H299.536L296.934 10.3412C297.458 10.1418 297.876 9.84657 298.19 9.45547C298.512 9.0567 298.673 8.58508 298.673 8.0406C298.673 7.68018 298.561 7.30441 298.336 6.91331C298.119 6.51454 297.753 6.17712 297.237 5.90105C296.729 5.61731 296.067 5.47544 295.252 5.47544ZM293.625 6.4992H295.252C295.611 6.4992 295.917 6.57206 296.171 6.71776C296.426 6.86346 296.616 7.05518 296.743 7.29291C296.871 7.52297 296.934 7.7722 296.934 8.0406C296.934 8.27066 296.867 8.50839 296.732 8.75379C296.598 8.99152 296.403 9.1909 296.149 9.35194C295.895 9.51299 295.596 9.59351 295.252 9.59351H293.625V6.4992Z" fill="#43A2FE"/>
</svg>
