<svg width="342" height="88" viewBox="0 0 342 88" fill="none" xmlns="http://www.w3.org/2000/svg">
<g clip-path="url(#clip0_91_208)">
<path d="M116.499 56.7111V31.2889C116.499 29.7244 117.768 28.4533 119.329 28.4533C120.891 28.4533 122.159 29.7244 122.159 31.2889V56.7111C122.159 58.2756 120.891 59.5467 119.329 59.5467C117.865 59.5467 116.499 58.2756 116.499 56.7111ZM148.897 57.7867L136.602 38.1333V56.7111C136.602 58.2756 135.333 59.5467 133.772 59.5467C132.21 59.5467 130.942 58.2756 130.942 56.7111V32.0711C130.942 30.0178 132.601 28.2578 134.747 28.2578H134.943C136.211 28.2578 137.48 28.9422 138.163 30.0178L150.361 49.3778V31.0933C150.361 29.5289 151.629 28.2578 153.191 28.2578C154.752 28.2578 156.021 29.5289 156.021 31.0933V55.7333C156.021 57.7867 154.362 59.5467 152.215 59.5467C150.849 59.5467 149.58 58.96 148.897 57.7867ZM175.733 33.7333V57.0044C175.733 58.4711 174.562 59.6444 173.098 59.6444H172.708C171.244 59.6444 170.073 58.4711 170.073 57.0044V33.7333H163.535C162.071 33.7333 160.9 32.56 160.9 31.0933C160.9 29.6267 162.071 28.4533 163.535 28.4533H182.368C183.832 28.4533 185.003 29.6267 185.003 31.0933C185.003 32.56 183.832 33.7333 182.368 33.7333H175.733ZM189.492 57.0044V30.8978C189.492 29.5289 190.663 28.3556 192.029 28.3556H209.106C210.473 28.3556 211.644 29.5289 211.644 30.8978C211.644 32.2667 210.473 33.44 209.106 33.44H195.152V40.6756H207.155C208.521 40.6756 209.692 41.8489 209.692 43.2178C209.692 44.5867 208.521 45.76 207.155 45.76H195.152V54.2667H209.106C210.473 54.2667 211.644 55.44 211.644 56.8089C211.644 58.1778 210.473 59.3511 209.106 59.3511H192.029C190.663 59.5467 189.492 58.4711 189.492 57.0044ZM235.552 57.8844L231.063 47.8133H224.134V56.8089C224.134 58.3733 222.866 59.6444 221.304 59.6444H221.207C219.646 59.6444 218.377 58.3733 218.377 56.8089V31.2889C218.377 29.7244 219.646 28.4533 221.207 28.4533H231.551C238.967 28.4533 242.383 33.1467 242.383 38.1333C242.383 42.3378 240.138 45.5644 236.723 46.8356L240.626 55.6356C241.407 57.4933 240.138 59.5467 238.089 59.5467C237.015 59.5467 235.942 58.96 235.552 57.8844ZM231.648 33.3422H224.232V42.6311H231.746C234.966 42.6311 236.82 40.9689 236.82 38.0356C236.723 35.5911 234.869 33.3422 231.648 33.3422ZM269.316 56.4178C266.974 58.7644 263.753 60.1333 260.436 60.1333C257.118 60.1333 253.995 59.0578 251.653 56.6133C248.238 53.1911 247.75 49.0844 247.75 44C247.75 38.9156 248.238 34.7111 251.653 31.3867C253.995 29.04 257.118 27.8667 260.436 27.8667C263.753 27.8667 266.974 29.1378 269.316 31.4844C270.096 32.3644 270.78 33.2444 271.267 34.32C272.146 36.1778 270.78 38.2311 268.73 38.2311C267.559 38.2311 266.583 37.5467 266.096 36.4711C265.9 35.8844 265.51 35.3956 265.12 34.9067C264.144 33.6356 262.387 32.9511 260.436 32.9511C258.679 32.9511 256.923 33.7333 255.654 35.0044C253.507 37.2533 253.507 41.0667 253.507 44C253.507 46.8356 253.507 50.7467 255.654 52.9956C256.923 54.2667 258.679 55.0489 260.436 55.0489C262.387 55.0489 264.144 54.3644 265.12 53.0933C265.51 52.6044 265.9 52.0178 266.096 51.4311C266.486 50.3556 267.559 49.6711 268.73 49.6711C270.78 49.6711 272.146 51.7244 271.267 53.5822C270.78 54.6578 270.096 55.6356 269.316 56.4178ZM299.664 56.6133C297.322 58.96 294.005 60.1333 290.687 60.1333C287.369 60.1333 284.149 58.96 281.709 56.6133C278.294 53.1911 277.806 49.0844 277.806 44C277.806 38.9156 278.391 34.7111 281.709 31.3867C284.051 29.04 287.369 27.8667 290.687 27.8667C294.005 27.8667 297.225 29.04 299.664 31.3867C303.08 34.8089 303.568 38.9156 303.568 44C303.665 49.0844 303.08 53.2889 299.664 56.6133ZM295.663 35.1022C294.395 33.8311 292.541 33.0489 290.784 33.0489C289.028 33.0489 287.076 33.8311 285.905 35.1022C283.758 37.3511 283.661 41.1644 283.661 44.0978C283.661 46.9333 283.758 50.7467 285.905 52.9956C287.174 54.2667 289.028 55.0489 290.784 55.0489C292.541 55.0489 294.492 54.2667 295.663 52.9956C297.81 50.7467 297.908 46.9333 297.908 44.0978C297.908 41.1644 297.81 37.2533 295.663 35.1022ZM336.454 56.8089V37.3511L329.135 57.2C328.744 58.3733 327.573 59.1556 326.305 59.1556C325.036 59.1556 323.963 58.3733 323.475 57.2L316.156 37.0578V56.8089C316.156 58.3733 314.888 59.5467 313.424 59.5467C311.862 59.5467 310.691 58.2756 310.691 56.8089V32.6578C310.691 30.3111 312.643 28.3556 314.985 28.3556H315.375C317.132 28.3556 318.791 29.4311 319.376 31.1911L326.5 50.5511L333.721 31.1911C334.307 29.5289 335.966 28.3556 337.722 28.3556C340.064 28.3556 342.016 30.3111 342.016 32.6578V56.8089C342.016 58.3733 340.747 59.5467 339.284 59.5467C337.625 59.5467 336.454 58.3733 336.454 56.8089ZM76.9777 0H11.1085C4.96074 0 0.081543 4.88889 0.081543 10.9511V76.9511C0.081543 83.1111 4.96074 88 11.1085 88H76.9777C83.0279 88 87.9071 83.1111 87.9071 77.0489V11.0489C87.9071 4.88889 83.0279 0 76.9777 0ZM55.7044 16.1333C55.7044 14.4711 56.973 13.2 58.6319 13.2C60.2909 13.2 61.5595 14.4711 61.5595 16.1333V55.3422C61.5595 57.0044 60.2909 58.2756 58.6319 58.2756C56.973 58.2756 55.7044 57.0044 55.7044 55.3422V16.1333ZM41.0668 14.6667C41.0668 13.0044 42.3354 11.7333 43.9943 11.7333C45.6533 11.7333 46.9219 13.0044 46.9219 14.6667V57.2C46.9219 58.8622 45.6533 60.1333 43.9943 60.1333C42.3354 60.1333 41.0668 58.8622 41.0668 57.2V14.6667ZM26.4292 16.1333C26.4292 14.4711 27.6978 13.2 29.3567 13.2C31.0157 13.2 32.2843 14.4711 32.2843 16.1333V55.3422C32.2843 57.0044 31.0157 58.2756 29.3567 58.2756C27.6978 58.2756 26.4292 57.0044 26.4292 55.3422V16.1333ZM11.7916 22C11.7916 20.3378 13.0602 19.0667 14.7191 19.0667C16.3781 19.0667 17.6467 20.3378 17.6467 22V48.4C17.6467 50.0622 16.3781 51.3333 14.7191 51.3333C13.0602 51.3333 11.7916 50.0622 11.7916 48.4V22ZM75.2212 66.7822C74.7333 67.1733 63.9015 76.2667 43.9943 76.2667C24.0872 76.2667 13.2554 67.1733 12.7675 66.7822C11.4989 65.7067 11.4013 63.8489 12.4747 62.6756C13.5481 61.4044 15.4022 61.3067 16.5732 62.3822C16.7684 62.3822 26.4292 70.4 43.9943 70.4C61.7546 70.4 71.3179 62.3822 71.3179 62.2844C72.5865 61.2089 74.4405 61.4044 75.4164 62.5778C76.5874 63.8489 76.3922 65.7067 75.2212 66.7822ZM76.1971 48.4C76.1971 50.0622 74.9285 51.3333 73.2695 51.3333C71.6106 51.3333 70.342 50.0622 70.342 48.4V22C70.342 20.3378 71.6106 19.0667 73.2695 19.0667C74.9285 19.0667 76.1971 20.3378 76.1971 22V48.4Z" fill="white"/>
</g>
<defs>
<clipPath id="clip0_91_208">
<rect width="342" height="88" fill="white"/>
</clipPath>
</defs>
</svg>
