<svg width="342" height="88" viewBox="0 0 342 88" fill="none" xmlns="http://www.w3.org/2000/svg">
<path d="M74.9681 5.92095L72.0393 13.2631L71.844 13.764L46.3549 11.0275L57.6513 0H61.5564C67.8046 0 72.2671 0.16695 72.6576 0.33391C73.7437 0.781851 74.4963 1.53521 74.9722 2.6795C75.4197 3.74234 75.4197 4.82962 74.9722 5.91689L74.9681 5.92095Z" fill="white"/>
<path d="M67.1579 25.5448L63.3097 35.2611C62.5571 37.1017 61.2473 37.9976 59.2662 37.9976C57.2852 37.9976 55.9753 37.1058 55.2228 35.2611L54.3034 32.9155L57.3136 31.1848L67.1579 25.5448Z" fill="white"/>
<path d="M71.7057 14.0735L67.3287 25.044L62.1096 28.0574L57.1469 30.9079L54.1651 32.6101L45.7691 11.5609L46.0498 11.3085L71.7057 14.0735Z" fill="white"/>
<path d="M91.4511 85.9313C90.9751 86.6562 90.3365 87.1896 89.5555 87.5236C88.9982 87.6905 74.6061 87.8045 56.7319 87.776L63.5375 81.7166H71.0386L91.4511 85.9028V85.9313Z" fill="white"/>
<path d="M35.8964 54.5795L44.1501 75.9097L27 72.3913V59.2137L27.1098 58.9368L35.8964 54.5795Z" fill="white"/>
<path d="M35.7866 54.2741L32.4387 55.9193L27.2807 58.4889L32.4387 45.5637L35.7866 54.2741Z" fill="white"/>
<path d="M44.9881 77.1965L45.0165 77.2494L45.0979 77.4734L45.1264 77.5304H50.4552L45.5738 76.5246L44.9881 77.1965Z" fill="white"/>
<path d="M63.0331 81.7451L56.2275 87.8045H49.0884L46.7454 81.7736H63.0331V81.7451Z" fill="white"/>
<path d="M44.7643 77.5304H27V72.7293L28.7004 73.0632L44.2924 76.2721L44.626 77.111L44.6545 77.2209L44.7358 77.4734L44.7643 77.5019V77.5304Z" fill="white"/>
<path d="M46.3833 81.6596L46.4118 81.7451L46.3549 81.6596H46.3833Z" fill="white"/>
<path d="M46.4118 81.7451L48.7549 87.776C43.2592 87.776 38.6015 87.719 35.2293 87.6905C30.1811 87.6335 29.2333 87.5521 29.1234 87.5236C28.2041 87.1326 27.5044 86.4892 27.0325 85.5974V81.7451H46.4159H46.4118Z" fill="white"/>
<path d="M48.8078 87.943H48.7793L48.7264 87.776L48.8078 87.943Z" fill="white"/>
<path d="M46.3833 81.6596L46.4118 81.7451L46.3549 81.6596H46.3833Z" fill="white"/>
<path d="M48.7264 87.776L48.8078 87.943H48.7793L48.7264 87.776Z" fill="white"/>
<path d="M52.7129 45.8691L36.0917 54.1316L34.0293 48.7441L32.634 45.1158L38.5202 30.3745C39.2727 28.5338 40.5826 27.6379 42.5636 27.6379C44.5447 27.6379 45.8545 28.5298 46.6071 30.3745L46.8593 30.9894C47.1115 31.6613 48.5881 35.3181 51.041 41.4875L52.7983 45.8691H52.7129Z" fill="white"/>
<path d="M34.0008 48.7441L36.0632 54.1316L33.9723 48.7441H34.0008ZM34.0008 48.7441L36.0632 54.1316L33.9723 48.7441H34.0008ZM34.0008 48.7441L36.0632 54.1316L33.9723 48.7441H34.0008ZM34.0008 48.7441L36.0632 54.1316L33.9723 48.7441H34.0008Z" fill="white"/>
<path d="M90.727 57.1776L81.4401 65.4116L67.524 52.067L82.2496 35.652L90.5033 56.4243C90.5033 56.4243 90.5317 56.5627 90.5602 56.6482C90.5602 56.7052 90.5602 56.7582 90.5887 56.7867V56.8966C90.5887 56.8966 90.6741 57.0921 90.6985 57.1776H90.727Z" fill="white"/>
<path d="M67.8006 77.5304H52.0987L45.8545 76.2436H45.826L67.3287 52.291L81.2164 65.6355L67.8006 77.5304Z" fill="white"/>
<path d="M82.1357 35.3181L67.3287 51.8471L67.105 52.0996L45.2118 76.5001L44.8497 76.8911L44.5447 76.1092V76.0237H44.5162L42.1446 69.9113L36.1771 54.4737L52.8268 46.2112L55.0845 51.9082C55.8655 53.8343 57.2892 54.8117 59.3516 54.8402C61.1903 54.8402 62.5327 53.9728 63.3666 52.3561L72.0962 30.4396C72.8488 28.599 74.1586 27.7031 76.1397 27.7031C78.1207 27.7031 79.4306 28.5949 80.1831 30.4396C80.4353 31.0545 80.6835 31.6694 80.9072 32.2802L82.1357 35.3792V35.3181Z" fill="white"/>
<path d="M91.4796 75.4373V77.5304H68.305L90.8409 57.54C91.2599 60.1381 91.5121 66.1649 91.5365 75.4088L91.4796 75.4373Z" fill="white"/>
<path d="M91.0036 56.9251C91.0036 56.9251 91.0606 57.0921 91.0606 57.2061L91.0036 56.9251Z" fill="white"/>
<path d="M91.4796 81.7451V85.5974L72.7105 81.7451H91.508H91.4796Z" fill="white"/>
<path d="M57.3991 0.114021L50.6505 0.166949L49.3935 0.195457L47.7501 0.252474L46.8023 0.309478L46.2979 0.362418L45.9928 0.390927L45.7976 0.447931L45.5169 0.586396L45.2931 0.700417L45.1833 0.753345L45.0735 0.83887L44.9026 0.948815L44.7358 1.09134L44.5975 1.20129L44.4592 1.36825L44.3169 1.5067L44.1785 1.67774L44.0687 1.78768L43.9548 1.92614L43.8165 2.17861L43.6782 2.40259L43.5643 2.65506L43.4545 2.93197L43.3975 3.07042L43.3446 3.3229L43.2877 3.51837L43.2592 3.71383L43.2307 3.85229L43.2023 4.01925L43.1738 4.24321V4.60565L43.2023 4.77667L43.2307 4.99657L43.2592 5.16761L43.2877 5.3875L43.3446 5.58297L43.426 5.83544L43.6213 6.31189L43.9019 6.95122L45.6837 11.4184L57.3991 0.114021Z" fill="white"/>
<path d="M130.942 35.5705C130.246 35.5705 129.937 36.047 129.77 36.3239L120.317 54.2212L110.92 36.3239C110.725 35.933 110.334 35.5705 109.748 35.5705C109.053 35.5705 108.467 36.1569 108.467 36.8818V61.5063C108.467 62.2027 109.053 62.8176 109.748 62.8176C110.444 62.8176 111.03 62.2312 111.03 61.5063V42.0738L119.145 57.43C119.426 57.9879 119.926 58.1834 120.317 58.1834C120.792 58.1834 121.207 57.9594 121.488 57.43L129.66 42.0738V61.5063C129.66 62.2027 130.246 62.8176 130.942 62.8176C131.637 62.8176 132.223 62.2312 132.223 61.5063V36.8818C132.223 36.1854 131.637 35.5705 130.942 35.5705Z" fill="white"/>
<path d="M156.931 35.3466C149.402 35.3466 144.801 39.8423 144.801 49.2205C144.801 58.5988 149.402 63.0415 156.931 63.0415C164.461 63.0415 169.062 58.4929 169.062 49.2205C169.062 39.9482 164.489 35.3466 156.931 35.3466ZM156.931 60.586C150.992 60.586 147.535 56.9007 147.535 49.2246C147.535 41.5485 150.992 37.8062 156.931 37.8062C162.87 37.8062 166.328 41.4915 166.328 49.2246C166.328 56.9577 162.87 60.586 156.931 60.586Z" fill="white"/>
<path d="M196.032 35.5705C195.556 35.5705 195.141 35.823 194.917 36.214L188.03 47.4369L181.143 36.214C180.919 35.823 180.472 35.5705 180.029 35.5705C179.305 35.5705 178.719 36.1569 178.719 36.9103C178.719 37.1913 178.804 37.4112 178.914 37.6066L186.724 50.0879V61.4208C186.724 62.1742 187.31 62.7606 188.034 62.7606C188.758 62.7606 189.344 62.1742 189.344 61.4208V50.0879L197.154 37.6066C197.264 37.4112 197.35 37.1587 197.35 36.9103C197.35 36.1569 196.764 35.5705 196.04 35.5705H196.032Z" fill="white"/>
<path d="M225.007 60.8629L215.525 36.4909C215.329 36.0144 214.91 35.5705 214.243 35.5705C213.576 35.5705 213.182 36.0185 212.986 36.4909L203.504 60.8629C203.419 61.0299 203.394 61.3108 203.394 61.4493C203.394 62.1456 203.98 62.7891 204.704 62.7891C205.375 62.7891 205.79 62.3411 205.986 61.8402L208.829 54.608H219.678L222.493 61.8687C222.688 62.3696 223.107 62.7891 223.774 62.7891C224.584 62.7891 225.141 62.1456 225.141 61.4493C225.141 61.3393 225.113 61.0584 225.031 60.8629H225.003H225.007ZM209.667 52.181L214.239 40.0907L218.868 52.181H209.667Z" fill="white"/>
<path d="M239.232 42.1023C239.232 39.8423 240.794 37.8021 244.866 37.8021C248.129 37.8021 249.996 39.4473 251.167 40.9295C251.472 41.3205 251.838 41.4304 252.172 41.4304C252.868 41.4304 253.429 40.8725 253.429 40.1721C253.429 39.8911 253.344 39.6712 253.205 39.4188C251.562 36.9347 248.576 35.3425 244.895 35.3425C239.204 35.3425 236.612 38.4699 236.612 42.0983C236.612 51.4521 251.31 47.9907 251.31 55.3614C251.31 58.8228 248.91 60.5819 244.618 60.5819C241.189 60.5819 238.956 58.8798 237.703 56.8396C237.479 56.4487 237.088 56.1962 236.616 56.1962C235.921 56.1962 235.36 56.7541 235.36 57.4545C235.36 57.6785 235.388 57.8454 235.555 58.1508C236.865 60.7204 240.184 63.009 244.618 63.009C250.614 63.009 253.933 60.2725 253.933 55.3614C253.933 45.8406 239.236 48.6341 239.236 42.0983L239.232 42.1023Z" fill="white"/>
<path d="M286.086 60.8629L276.604 36.4909C276.408 36.0144 275.989 35.5705 275.322 35.5705C274.655 35.5705 274.26 36.0185 274.065 36.4909L264.583 60.8629C264.498 61.0299 264.473 61.3108 264.473 61.4493C264.473 62.1456 265.059 62.7891 265.783 62.7891C266.454 62.7891 266.869 62.3411 267.064 61.8402L269.908 54.608H280.757L283.547 61.8687C283.743 62.3696 284.162 62.7891 284.829 62.7891C285.638 62.7891 286.195 62.1456 286.195 61.4493C286.195 61.3393 286.167 61.0584 286.086 60.8629ZM270.746 52.181L275.318 40.0907L279.947 52.181H270.746Z" fill="white"/>
<path d="M314.752 60.6104L307.641 50.9797C311.851 50.7842 314.585 47.5183 314.585 43.4421C314.585 39.3658 311.461 35.9045 307.165 35.9045H299.44C298.688 35.9045 298.131 36.4909 298.131 37.2442V61.4493C298.131 62.2027 298.716 62.7891 299.44 62.7891C300.165 62.7891 300.75 62.2027 300.75 61.4493V50.9797H304.684L312.576 62.1457C312.881 62.6221 313.3 62.7891 313.69 62.7891C314.443 62.7891 315 62.2027 315 61.4493C315 61.1683 314.915 60.8629 314.719 60.6104H314.752ZM300.75 38.3315H307.137C309.927 38.3315 311.904 40.5101 311.904 43.4136C311.904 46.3171 309.952 48.4957 307.247 48.4957H300.75V48.5242V38.3315Z" fill="white"/>
</svg>
