<svg width="342" height="88" viewBox="0 0 342 88" fill="none" xmlns="http://www.w3.org/2000/svg">
<path d="M56.0967 14.3268L41.7226 0L13 28.679L41.7226 57.3835L56.0967 43.0313L41.7226 28.679L56.0967 14.3268Z" fill="white"/>
<path d="M56.0957 14.3301L41.7255 28.6786L56.0957 43.027L70.466 28.6786L56.0957 14.3301Z" fill="#D7D7D7"/>
<path d="M89.6703 35.0012H96.4105C96.9977 37.27 98.9381 38.5701 102.155 38.5701C105.525 38.5701 107.568 37.372 107.568 35.3071C107.568 33.3187 106.776 32.299 101.721 32.095C93.0915 31.7381 90.4107 28.934 90.4107 24.1669C90.4107 18.8134 94.6744 15.6524 101.849 15.6524C108.844 15.6524 112.802 18.8644 113.593 23.6825H107.006C106.368 22.2549 105.015 21.1078 101.798 21.1078C98.7339 21.1078 96.8446 22.153 96.8446 23.8864C96.8446 25.6709 97.636 26.4102 102.538 26.6141C111.321 26.971 114.078 29.7242 114.078 35.0266C114.078 40.7115 109.661 44.1275 102.283 44.1275C94.5723 44.153 90.2064 40.4311 89.6703 35.0012Z" fill="white"/>
<path d="M132.41 38.2642C137.158 38.2642 140.043 34.9502 140.043 29.8517C140.043 24.8552 137.158 21.5411 132.41 21.5411C127.61 21.5411 124.776 24.8552 124.776 29.8517C124.776 34.9502 127.61 38.2642 132.41 38.2642ZM132.41 44.153C123.882 44.153 118.087 38.1622 118.087 29.8517C118.087 21.5921 123.882 15.6524 132.41 15.6524C140.988 15.6524 146.733 21.5921 146.733 29.8517C146.733 38.1622 140.988 44.153 132.41 44.153Z" fill="white"/>
<path d="M159.779 43.3627C154.417 43.3627 151.89 40.482 151.89 35.9954V4.71611H158.477V35.3581C158.477 36.8876 159.268 37.5759 160.519 37.5759H163.353V43.3627H159.779Z" fill="white"/>
<path d="M187.2 40.0997C185.029 42.6744 181.889 44.153 178.085 44.153C171.983 44.153 168.281 39.9467 168.281 33.6501V16.4171H174.868V32.095C174.868 35.613 176.502 38.1877 180.076 38.1877C182.859 38.1877 185.974 36.3013 187.174 33.5736V16.4426H193.761V43.4137H187.2V40.0997Z" fill="white"/>
<path d="M209.003 43.3627C203.259 43.3627 200.578 40.4056 200.578 35.9444V7.52028H207.165V16.4171H215.795V22.1784H207.165V35.1031C207.165 36.7856 208.059 37.5759 209.539 37.5759H215.795V43.3627H209.003Z" fill="white"/>
<path d="M226.773 4.71611H233.36V11.3951H226.773V4.71611ZM226.773 22.1784H220.594V16.3917H233.36V43.3627H226.773V22.1784Z" fill="white"/>
<path d="M253.351 38.2642C258.1 38.2642 260.985 34.9502 260.985 29.8517C260.985 24.8552 258.1 21.5411 253.351 21.5411C248.551 21.5411 245.717 24.8552 245.717 29.8517C245.717 34.9502 248.577 38.2642 253.351 38.2642ZM253.351 44.153C244.824 44.153 239.028 38.1622 239.028 29.8517C239.028 21.5921 244.824 15.6524 253.351 15.6524C261.929 15.6524 267.674 21.5921 267.674 29.8517C267.674 38.1622 261.955 44.153 253.351 44.153Z" fill="white"/>
<path d="M273.291 43.3627V16.3917H279.878V19.7567C282.099 17.1309 285.342 15.6524 289.248 15.6524C295.554 15.6524 299.358 19.8586 299.358 26.1043V43.3372H292.771V27.7358C292.771 24.2178 291.086 21.6431 287.231 21.6431C284.346 21.6431 281.129 23.5295 279.852 26.2572V43.3372H273.291V43.3627Z" fill="white"/>
<path d="M304.592 35.0012H311.332C311.92 37.27 313.86 38.5701 317.077 38.5701C320.447 38.5701 322.49 37.372 322.49 35.3071C322.49 33.3187 321.698 32.299 316.643 32.095C308.013 31.7381 305.333 28.934 305.333 24.1669C305.333 18.8134 309.596 15.6524 316.771 15.6524C323.766 15.6524 327.723 18.8644 328.515 23.6825H321.928C321.29 22.2549 319.936 21.1078 316.719 21.1078C313.656 21.1078 311.766 22.153 311.766 23.8864C311.766 25.6709 312.558 26.4102 317.46 26.6141C326.243 26.971 329 29.7242 329 35.0266C329 40.7115 324.583 44.1275 317.205 44.1275C309.494 44.153 305.128 40.4311 304.592 35.0012Z" fill="white"/>
<path d="M244.083 73.3418C244.083 74.1321 244.185 74.8459 244.39 75.5342C244.594 76.2225 244.875 76.8088 245.232 77.3186C245.589 77.8285 246.049 78.2109 246.585 78.5168C247.121 78.7972 247.734 78.9502 248.423 78.9502C249.087 78.9502 249.7 78.7972 250.236 78.5168C250.772 78.2364 251.232 77.8285 251.615 77.3186C251.998 76.8088 252.279 76.2225 252.483 75.5342C252.687 74.8459 252.789 74.1321 252.789 73.3418C252.789 72.5516 252.687 71.8378 252.483 71.1495C252.279 70.4612 251.998 69.8749 251.615 69.365C251.232 68.8806 250.772 68.4728 250.236 68.1924C249.7 67.9119 249.087 67.759 248.423 67.759C247.734 67.759 247.121 67.9119 246.585 68.1924C246.049 68.4728 245.589 68.8806 245.232 69.365C244.875 69.8494 244.568 70.4612 244.39 71.1495C244.185 71.8123 244.083 72.5516 244.083 73.3418ZM244.134 81.1935H241.3V57.8169H244.134V68.0904C244.211 67.9119 244.364 67.6315 244.619 67.3001C244.849 66.9687 245.155 66.6373 245.538 66.3059C245.921 65.9745 246.406 65.6941 246.968 65.4647C247.53 65.2352 248.219 65.1078 248.985 65.1078C249.904 65.1078 250.772 65.2862 251.589 65.6686C252.406 66.051 253.121 66.5863 253.708 67.3001C254.321 68.0139 254.806 68.8807 255.164 69.9003C255.521 70.92 255.7 72.0927 255.7 73.3928C255.7 74.6929 255.521 75.8401 255.164 76.8598C254.806 77.8795 254.321 78.7462 253.708 79.46C253.096 80.1738 252.381 80.7091 251.589 81.0915C250.772 81.4739 249.904 81.6524 248.985 81.6524C248.194 81.6524 247.53 81.5249 246.968 81.2955C246.406 81.066 245.921 80.7856 245.538 80.4797C245.155 80.1738 244.849 79.8679 244.619 79.5365C244.39 79.2306 244.236 78.9757 244.134 78.7972V81.1935Z" fill="white"/>
<path d="M263.589 88H260.73L263.512 80.9386L257.232 65.5156H260.372L264.993 77.1657L269.589 65.5156H272.525L263.589 88Z" fill="white"/>
<path d="M305.92 81.117C307.809 81.117 309.162 80.5307 309.749 80.0209V76.095C309.315 76.4264 308.447 76.8088 307.324 76.8088C306.533 76.8088 305.945 76.6304 305.511 76.2225C305.154 75.8656 304.975 75.2538 304.975 74.4125V57.7914H300.175V62.7115H309.775V67.3511H300.175V75.5852C300.175 77.2677 300.686 78.5933 301.605 79.5365C302.575 80.5817 304.056 81.117 305.92 81.117ZM320.6 81.117C323.281 81.117 325.375 80.1483 326.779 78.7462C327.902 77.65 328.592 76.3754 328.949 75.0753L324.685 73.6477C324.507 74.3105 324.149 74.9988 323.562 75.5342C322.873 76.197 321.928 76.6559 320.575 76.6559C319.349 76.6559 318.175 76.1715 317.332 75.3557C316.49 74.489 315.979 73.2144 315.979 71.6083C315.979 69.9768 316.49 68.7277 317.332 67.861C318.175 67.0197 319.298 66.5863 320.524 66.5863C321.826 66.5863 322.745 67.0197 323.409 67.6825C323.945 68.2178 324.277 68.9061 324.507 69.5944L328.821 68.1414C328.489 66.8667 327.8 65.5921 326.779 64.5469C325.324 63.1193 323.204 62.1251 320.422 62.1251C317.843 62.1251 315.52 63.0939 313.834 64.7764C312.149 66.4844 311.154 68.8297 311.154 71.6083C311.154 74.3615 312.2 76.7323 313.911 78.4403C315.622 80.1483 317.996 81.117 320.6 81.117ZM289.912 81.117C292.337 81.117 294.354 80.3523 295.656 79.0776C296.626 78.1089 297.214 76.7833 297.214 75.2538C297.214 73.8772 296.703 72.628 295.758 71.6848C294.814 70.7416 293.461 70.0533 291.75 69.7219L288.942 69.1866C287.767 68.9571 287.129 68.3963 287.129 67.5805C287.129 66.5353 288.15 65.7961 289.784 65.7961C290.805 65.7961 291.673 66.1275 292.261 66.7138C292.618 67.1217 292.873 67.6315 292.95 68.1924L296.984 67.2746C296.882 66.102 296.32 65.1078 295.503 64.2665C294.201 62.9664 292.158 62.1251 289.759 62.1251C287.537 62.1251 285.699 62.8389 284.422 64.0116C283.325 65.0313 282.712 66.4079 282.712 67.9374C282.712 69.2885 283.146 70.4102 284.014 71.2769C284.882 72.1437 286.159 72.8065 287.844 73.1889L290.601 73.8517C291.98 74.1831 292.592 74.6929 292.592 75.5852C292.592 76.7068 291.571 77.3696 289.912 77.3696C288.712 77.3696 287.742 76.9618 287.103 76.3244C286.669 75.8911 286.414 75.3047 286.388 74.6419L282.252 75.5597C282.354 76.7833 282.942 77.8795 283.81 78.7462C285.188 80.2503 287.41 81.117 289.912 81.117Z" fill="white"/>
</svg>
