<svg width="342" height="88" viewBox="0 0 342 88" fill="none" xmlns="http://www.w3.org/2000/svg">
<path d="M150.387 0V18.5046H168.466V0H150.387ZM168.466 18.5046V36.0501H186.545V18.5046H168.466ZM168.466 36.0501H150.387V67.165C150.387 73.4701 152.305 78.5429 155.728 82.106C159.563 85.9446 165.179 88 172.164 88C179.287 88 184.353 85.8072 186.545 83.888V69.0843C184.902 70.3183 181.615 71.8247 177.368 71.8247C174.355 71.8247 172.164 71.1396 170.519 69.6319C169.15 68.2617 168.466 65.9324 168.466 62.7791V36.0501ZM111.351 16.4491C102.997 16.4491 96.0117 19.1896 91.218 23.5758C87.1089 27.4142 84.7803 32.623 84.7803 38.3808C84.7803 43.4519 86.4245 47.7016 89.7117 50.9911C92.9986 54.2808 97.7923 56.7474 104.092 58.2553L114.502 60.7237C119.707 61.9563 122.036 63.8755 122.036 67.3026C122.036 71.5511 118.2 74.0178 111.9 74.0178C107.379 74.0178 103.681 72.5114 101.353 70.043C99.71 68.3992 98.7503 66.2061 98.6142 63.7379L83 67.165C83.4112 71.8248 85.6023 75.9385 88.8895 79.2266C94.0941 84.7106 102.448 88 111.9 88C121.076 88 128.609 85.1221 133.539 80.3247C137.239 76.6224 139.43 71.6886 139.43 65.9324C139.43 60.7235 137.512 56.0622 133.95 52.4989C130.39 48.9341 125.321 46.33 118.885 45.0974L108.338 43.0405C103.955 42.2177 101.49 40.0248 101.49 37.0089C101.49 33.0343 105.324 30.2937 111.489 30.2937C115.323 30.2937 118.611 31.5264 120.803 33.7194C122.172 35.2271 123.13 37.1465 123.405 39.3396L138.608 35.9125C138.197 31.5264 136.142 27.6894 132.992 24.5359C128.061 19.6009 120.391 16.4491 111.351 16.4491ZM226.949 16.4491C217.226 16.4491 208.459 20.1498 202.159 26.4552C195.858 32.8982 192.024 41.8061 192.024 52.2237C192.024 62.6413 195.996 71.5512 202.434 77.9939C208.733 84.2993 217.637 88 227.498 88C237.634 88 245.441 84.2994 250.782 79.0907C255.029 74.9784 257.631 70.1808 259 65.2457L242.975 59.9008C242.29 62.3674 240.921 64.972 238.728 67.0274C236.126 69.4958 232.565 71.2774 227.498 71.2774C222.842 71.2774 218.458 69.4957 215.308 66.3425C212.158 63.0528 210.241 58.2552 210.241 52.2237C210.241 46.056 212.158 41.395 215.308 38.107C218.458 34.9535 222.704 33.3094 227.361 33.3094C232.292 33.3094 235.716 34.9534 238.181 37.4203C240.236 39.4772 241.468 42.0816 242.29 44.686L258.589 39.202C257.356 34.4046 254.754 29.6069 250.919 25.6323C245.441 20.2874 237.497 16.4491 226.949 16.4491Z" fill="white"/>
</svg>
