<svg width="342" height="88" viewBox="0 0 342 88" fill="none" xmlns="http://www.w3.org/2000/svg">
<g clip-path="url(#clip0_91_2)">
<path d="M9.92516 28.1944H7.86454C7.64955 28.0854 7.46798 27.9203 7.339 27.7167C7.21002 27.513 7.13842 27.2783 7.13175 27.0374C7.11813 26.9406 7.12652 26.8419 7.15628 26.7488C7.18605 26.6557 7.23643 26.5705 7.30367 26.4996C7.37092 26.4286 7.45329 26.3738 7.54467 26.339C7.63606 26.3043 7.73409 26.2907 7.83148 26.2991C8.27777 26.2991 8.59182 26.5966 8.67446 27.1421H9.80946C9.70478 25.7756 8.94995 25.0594 7.81495 25.0594C7.56587 25.0399 7.3155 25.0742 7.08085 25.16C6.84621 25.2458 6.63278 25.3811 6.45507 25.5567C6.27736 25.7324 6.13953 25.9442 6.05094 26.1778C5.96235 26.4114 5.92508 26.6613 5.94165 26.9106C5.93618 27.3874 6.11593 27.8476 6.44304 28.1944H5.72127V29.4341H9.92516V28.1944Z" fill="white"/>
<path d="M13.523 33.0099C13.523 33.9575 13.1428 34.7344 11.9031 34.7344H4.52566C4.24285 34.7487 3.9602 34.7034 3.696 34.6015C3.4318 34.4996 3.19195 34.3434 2.99198 34.1429C2.79201 33.9424 2.63637 33.7021 2.53516 33.4377C2.43395 33.1732 2.38941 32.8904 2.40443 32.6077V29.4561H0.00220249V32.6077C-0.0167777 33.2079 0.0870791 33.8056 0.3074 34.3642C0.527722 34.9228 0.85986 35.4305 1.28344 35.8562C1.70701 36.2818 2.2131 36.6164 2.77063 36.8394C3.32816 37.0625 3.92539 37.1692 4.52566 37.1532H12.7902C13.2046 37.163 13.6166 37.0886 14.0014 36.9345C14.3862 36.7804 14.7357 36.5499 15.0288 36.2568C15.3219 35.9637 15.5525 35.6142 15.7066 35.2294C15.8606 34.8446 15.935 34.4325 15.9252 34.0182V22.5139H13.523V33.0099Z" fill="white"/>
<path d="M19.9528 37.4066C19.9654 37.689 19.9189 37.9709 19.8164 38.2343C19.7139 38.4977 19.5576 38.7369 19.3575 38.9365C19.1574 39.1361 18.9178 39.2918 18.6541 39.3936C18.3904 39.4954 18.1084 39.5412 17.8261 39.5278H16.8178V41.9466H17.8481C18.4483 41.9601 19.0449 41.852 19.6022 41.6287C20.1594 41.4054 20.6657 41.0716 21.0904 40.6473C21.5152 40.2231 21.8496 39.7173 22.0736 39.1603C22.2975 38.6033 22.4064 38.0068 22.3936 37.4066V27.0153H19.9528V37.4066Z" fill="white"/>
<path d="M48.9669 38.8336C48.7687 38.8214 48.5701 38.8499 48.3834 38.9173C48.1966 38.9848 48.0256 39.0897 47.881 39.2257C47.7363 39.3618 47.6211 39.5259 47.5423 39.7082C47.4635 39.8904 47.4228 40.0869 47.4228 40.2854C47.4228 40.484 47.4635 40.6804 47.5423 40.8627C47.6211 41.0449 47.7363 41.2091 47.881 41.3451C48.0256 41.4811 48.1966 41.5861 48.3834 41.6535C48.5701 41.721 48.7687 41.7495 48.9669 41.7372C49.165 41.7495 49.3636 41.721 49.5504 41.6535C49.7371 41.5861 49.9081 41.4811 50.0527 41.3451C50.1974 41.2091 50.3127 41.0449 50.3915 40.8627C50.4703 40.6804 50.5109 40.484 50.5109 40.2854C50.5109 40.0869 50.4703 39.8904 50.3915 39.7082C50.3127 39.5259 50.1974 39.3618 50.0527 39.2257C49.9081 39.0897 49.7371 38.9848 49.5504 38.9173C49.3636 38.8499 49.165 38.8214 48.9669 38.8336Z" fill="white"/>
<path d="M58.7796 33.7867C58.7888 33.908 58.7727 34.0297 58.7325 34.1444C58.6923 34.2591 58.6288 34.3643 58.546 34.4533C58.4632 34.5423 58.3629 34.6132 58.2514 34.6616C58.1399 34.71 58.0196 34.7348 57.8981 34.7344H55.1432C54.7025 34.6738 54.2011 34.6077 53 31.8969C50.9008 27.368 47.5784 25.6048 43.7933 26.9933V29.1972C46.9448 27.974 48.8181 29.1972 50.3498 32.1834C50.7274 33.0613 51.1789 33.9055 51.6997 34.7069H42.3332C42.1528 34.7141 41.973 34.6835 41.8051 34.6171C41.6373 34.5506 41.4852 34.4499 41.3586 34.3212C41.232 34.1925 41.1337 34.0388 41.07 33.8699C41.0064 33.701 40.9787 33.5207 40.9888 33.3405V31.0099C41.0031 30.4003 40.8938 29.7942 40.6676 29.228C40.4413 28.6618 40.1029 28.1473 39.6725 27.7153C39.2421 27.2834 38.7288 26.9431 38.1634 26.7149C37.598 26.4866 36.9923 26.3752 36.3827 26.3872H36.1513C35.5417 26.3752 34.936 26.4866 34.3706 26.7149C33.8052 26.9431 33.2919 27.2834 32.8615 27.7153C32.4312 28.1473 32.0927 28.6618 31.8665 29.228C31.6402 29.7942 31.531 30.4003 31.5452 31.0099V33.368C31.5553 33.5482 31.5277 33.7286 31.464 33.8975C31.4003 34.0664 31.302 34.2201 31.1754 34.3487C31.0488 34.4774 30.8967 34.5782 30.7289 34.6446C30.5611 34.711 30.3812 34.7416 30.2008 34.7344H28.4873C28.3658 34.7348 28.2455 34.71 28.134 34.6616C28.0225 34.6132 27.9222 34.5423 27.8394 34.4533C27.7566 34.3643 27.6931 34.2591 27.6529 34.1444C27.6127 34.0297 27.5967 33.908 27.6058 33.7867V22.5139H25.187V34.6352C25.1826 34.9679 25.2448 35.298 25.37 35.6062C25.4953 35.9143 25.681 36.1943 25.9162 36.4295C26.1514 36.6647 26.4314 36.8504 26.7395 36.9757C27.0477 37.1009 27.3778 37.1631 27.7105 37.1587H30.2119C30.7429 37.1679 31.2686 37.0526 31.747 36.822C32.2254 36.5914 32.6432 36.252 32.9667 35.8308C33.9538 36.6508 35.1987 37.0957 36.4819 37.0871C37.0559 37.0845 37.6228 36.9594 38.1444 36.7199C38.6661 36.4804 39.1306 36.1322 39.5067 35.6986C39.8172 36.1582 40.2382 36.5324 40.7312 36.7866C41.2242 37.0408 41.7732 37.1668 42.3277 37.1532H58.6805C59.0119 37.1569 59.3406 37.0941 59.6473 36.9683C59.9539 36.8425 60.2321 36.6564 60.4654 36.4211C60.6988 36.1857 60.8824 35.9058 61.0055 35.5981C61.1285 35.2904 61.1885 34.9611 61.1819 34.6297V22.5084H58.7631L58.7796 33.7867ZM38.5811 32.4644C38.5945 33.0321 38.3832 33.5821 37.9932 33.9948C37.6031 34.4075 37.066 34.6496 36.4984 34.6683C36.017 34.6838 35.5385 34.5874 35.1006 34.3866C34.6627 34.1859 34.2774 33.8862 33.975 33.5113V31.0099C33.9582 30.716 34.0037 30.422 34.1085 30.147C34.2133 29.872 34.3751 29.6223 34.5832 29.4142C34.7913 29.2061 35.041 29.0443 35.316 28.9395C35.591 28.8347 35.885 28.7892 36.1789 28.806H36.4103C36.7041 28.7892 36.9981 28.8347 37.2731 28.9395C37.5481 29.0443 37.7978 29.2061 38.0059 29.4142C38.214 29.6223 38.3758 29.872 38.4806 30.147C38.5854 30.422 38.6309 30.716 38.6141 31.0099L38.5811 32.4644Z" fill="white"/>
<path d="M66.4987 22.5139H64.08V37.1477H66.4987V22.5139Z" fill="white"/>
<path d="M73.8982 26.4038H73.6668C73.058 26.3894 72.4527 26.4988 71.8873 26.7252C71.322 26.9516 70.8085 27.2903 70.3779 27.7209C69.9473 28.1515 69.6086 28.665 69.3822 29.2304C69.1557 29.7957 69.0464 30.4011 69.0607 31.0099V32.503C69.0444 33.706 69.5034 34.8668 70.338 35.7334C71.1726 36.5999 72.3153 37.1022 73.5181 37.1311H76.0635V37.5113C76.0635 39.2138 74.7798 40.1394 70.6145 39.4011V41.6546C75.7275 42.8502 78.4823 41.043 78.4823 38.0953V31.0099C78.4989 30.4023 78.3918 29.7978 78.1676 29.2329C77.9434 28.668 77.6067 28.1546 77.178 27.7238C76.7493 27.2931 76.2375 26.9539 75.6737 26.727C75.1099 26.5001 74.5058 26.3901 73.8982 26.4038ZM76.0635 34.7124H73.5401C72.9808 34.6759 72.4564 34.4278 72.0735 34.0183C71.6907 33.6089 71.4783 33.069 71.4795 32.5085V31.0099C71.4627 30.7161 71.5082 30.422 71.613 30.147C71.7178 29.872 71.8796 29.6223 72.0877 29.4142C72.2958 29.2061 72.5455 29.0443 72.8205 28.9395C73.0955 28.8347 73.3896 28.7892 73.6834 28.806H73.9148C74.2061 28.7922 74.497 28.84 74.7686 28.9464C75.0401 29.0528 75.2862 29.2154 75.4906 29.4234C75.695 29.6315 75.8531 29.8803 75.9547 30.1537C76.0563 30.4271 76.099 30.7188 76.0801 31.0099L76.0635 34.7124Z" fill="white"/>
<path d="M87.7716 24.7013C88.1546 24.697 88.5207 24.5429 88.7915 24.2721C89.0624 24.0013 89.2164 23.6352 89.2207 23.2522C89.2229 22.9625 89.1388 22.6787 88.9792 22.4369C88.8196 22.1951 88.5917 22.0063 88.3245 21.8944C88.0572 21.7825 87.7628 21.7527 87.4785 21.8087C87.1943 21.8647 86.9331 22.004 86.7282 22.2088C86.5234 22.4137 86.3841 22.6748 86.3281 22.9591C86.2721 23.2433 86.302 23.5378 86.4139 23.805C86.5257 24.0723 86.7146 24.3002 86.9564 24.4598C87.1981 24.6194 87.4819 24.7034 87.7716 24.7013Z" fill="white"/>
<path d="M91.8929 24.7013C92.2772 24.7013 92.6458 24.5486 92.9175 24.2768C93.1893 24.0051 93.342 23.6365 93.342 23.2522C93.342 22.8679 93.1893 22.4993 92.9175 22.2276C92.6458 21.9558 92.2772 21.8032 91.8929 21.8032C91.5112 21.8116 91.1475 21.967 90.8776 22.2369C90.6077 22.5068 90.4523 22.8705 90.4439 23.2522C90.4482 23.6352 90.6022 24.0013 90.873 24.2721C91.1438 24.5429 91.5099 24.697 91.8929 24.7013Z" fill="white"/>
<path d="M100.025 39.5278C99.7349 39.529 99.4514 39.6163 99.2108 39.7787C98.9702 39.9412 98.7832 40.1714 98.6736 40.4403C98.5641 40.7091 98.5368 41.0045 98.5953 41.2888C98.6538 41.5732 98.7955 41.8338 99.0023 42.0375C99.2092 42.2413 99.4719 42.379 99.7571 42.4332C100.042 42.4874 100.337 42.4557 100.604 42.3421C100.872 42.2285 101.099 42.0381 101.258 41.795C101.417 41.552 101.5 41.2672 101.496 40.9769C101.488 40.5915 101.329 40.2246 101.055 39.954C100.78 39.6835 100.411 39.5306 100.025 39.5278Z" fill="white"/>
<path d="M109.596 39.1477C109.223 39.1705 108.873 39.3346 108.618 39.6064C108.362 39.8783 108.22 40.2374 108.22 40.6105C108.22 40.9837 108.362 41.3427 108.618 41.6146C108.873 41.8864 109.223 42.0505 109.596 42.0733C109.968 42.0505 110.318 41.8864 110.573 41.6146C110.829 41.3427 110.971 40.9837 110.971 40.6105C110.971 40.2374 110.829 39.8783 110.573 39.6064C110.318 39.3346 109.968 39.1705 109.596 39.1477Z" fill="white"/>
<path d="M110.538 34.6297V27.1861H108.108V33.7978C108.116 33.9188 108.1 34.0402 108.059 34.1546C108.019 34.2689 107.955 34.3737 107.872 34.4626C107.79 34.5514 107.69 34.6223 107.579 34.671C107.468 34.7196 107.348 34.745 107.226 34.7454H102.857C101.634 34.7454 101.237 33.9686 101.237 33.0209V32.6628C101.248 32.4664 101.248 32.2696 101.237 32.0732V27.2027H98.7965V33.0705C98.7965 33.9741 98.4164 34.7234 97.1987 34.7234H95.5183C95.3363 34.7329 95.1544 34.7041 94.9843 34.6388C94.8142 34.5735 94.6598 34.4732 94.5309 34.3443C94.4021 34.2155 94.3018 34.061 94.2365 33.8909C94.1712 33.7209 94.1424 33.5389 94.1519 33.357V26.3872H89.375C88.7664 26.375 88.1616 26.4866 87.5974 26.7151C87.0332 26.9436 86.5213 27.2843 86.0926 27.7165C85.664 28.1487 85.3276 28.6635 85.1038 29.2296C84.8801 29.7957 84.7736 30.4014 84.7909 31.0099V32.4644C84.7747 33.6706 85.2369 34.8341 86.0763 35.7004C86.9158 36.5668 88.0642 37.0653 89.2703 37.0871C89.882 37.1181 90.493 37.0138 91.0597 36.7814C91.6264 36.549 92.1348 36.1943 92.5485 35.7427C92.9094 36.1914 93.368 36.5518 93.8894 36.7962C94.4108 37.0407 94.9811 37.1628 95.5568 37.1532H97.2098C97.7406 37.1795 98.2706 37.0874 98.7614 36.8834C99.2522 36.6795 99.6914 36.3689 100.047 35.9741C100.362 36.3303 100.746 36.6185 101.177 36.8213C101.607 37.024 102.073 37.1369 102.549 37.1532H108.014C108.347 37.1576 108.677 37.0954 108.985 36.9701C109.293 36.8449 109.573 36.6592 109.809 36.424C110.044 36.1888 110.229 35.9088 110.355 35.6006C110.48 35.2925 110.542 34.9623 110.538 34.6297ZM91.8047 33.4947C91.5069 33.8693 91.1256 34.1689 90.6912 34.3698C90.2569 34.5707 89.7816 34.6673 89.3033 34.6518C89.0228 34.644 88.7466 34.5806 88.4908 34.4653C88.2349 34.35 88.0045 34.1851 87.8129 33.9801C87.6212 33.7751 87.4721 33.5341 87.3742 33.2711C87.2764 33.0081 87.2317 32.7283 87.2427 32.4479V31.0099C87.2238 30.7188 87.2665 30.4271 87.3681 30.1537C87.4697 29.8803 87.6278 29.6315 87.8322 29.4234C88.0366 29.2154 88.2827 29.0528 88.5542 28.9464C88.8258 28.84 89.1167 28.7922 89.408 28.806H91.8047V33.4947Z" fill="white"/>
<path d="M105.474 39.1477C105.275 39.1354 105.075 39.1642 104.886 39.2321C104.698 39.3001 104.526 39.4059 104.38 39.5429C104.235 39.6799 104.119 39.8454 104.039 40.029C103.96 40.2126 103.919 40.4105 103.919 40.6105C103.919 40.8105 103.96 41.0084 104.039 41.1921C104.119 41.3757 104.235 41.5411 104.38 41.6781C104.526 41.8151 104.698 41.9209 104.886 41.9889C105.075 42.0569 105.275 42.0856 105.474 42.0733C105.847 42.0505 106.196 41.8864 106.452 41.6146C106.708 41.3428 106.85 40.9837 106.85 40.6105C106.85 40.2374 106.708 39.8783 106.452 39.6064C106.196 39.3346 105.847 39.1705 105.474 39.1477Z" fill="white"/>
<path d="M130.576 25.1641C130.864 25.1619 131.145 25.0747 131.383 24.9134C131.622 24.7522 131.807 24.524 131.916 24.2577C132.026 23.9913 132.054 23.6987 131.997 23.4165C131.94 23.1343 131.801 22.8751 131.598 22.6716C131.394 22.4681 131.135 22.3293 130.853 22.2726C130.571 22.2159 130.278 22.2439 130.012 22.353C129.745 22.4622 129.517 22.6476 129.356 22.886C129.195 23.1244 129.108 23.4052 129.105 23.693C129.105 24.0831 129.26 24.4573 129.536 24.7332C129.812 25.0091 130.186 25.1641 130.576 25.1641Z" fill="white"/>
<path d="M139.32 33.7867C139.33 33.9103 139.313 34.0345 139.271 34.1511C139.229 34.2677 139.163 34.3742 139.077 34.4636C138.992 34.5531 138.888 34.6234 138.773 34.6701C138.658 34.7167 138.535 34.7386 138.411 34.7344H136.042V32.8776C136.042 28.5691 134.257 26.547 130.681 26.547C128.345 26.547 126.329 28.1448 124.687 30.0181V27.6049H122.268V34.7344H118.929V27.0208H116.488V37.4066C116.503 37.6877 116.459 37.9688 116.359 38.2318C116.258 38.4948 116.104 38.7339 115.906 38.9337C115.708 39.1335 115.47 39.2896 115.208 39.3919C114.945 39.4942 114.665 39.5405 114.383 39.5278H113.331V41.9466H114.383C114.984 41.9601 115.58 41.852 116.138 41.6287C116.695 41.4054 117.201 41.0716 117.626 40.6473C118.051 40.2231 118.385 39.7173 118.609 39.1603C118.833 38.6033 118.942 38.0068 118.929 37.4066V37.1532H139.232C139.562 37.154 139.889 37.0889 140.193 36.9619C140.497 36.8349 140.773 36.6484 141.005 36.4134C141.236 36.1784 141.418 35.8996 141.541 35.5934C141.663 35.2871 141.723 34.9595 141.717 34.6297V22.5084H139.298L139.32 33.7867ZM133.711 34.7344H124.687V32.3267C126.56 30.1228 128.472 28.9603 130.384 28.9603C132.295 28.9603 133.689 30.0953 133.689 32.8942L133.711 34.7344Z" fill="white"/>
<path d="M147.034 22.5139H144.615V37.1477H147.034V22.5139Z" fill="white"/>
<path d="M154.433 26.4038H154.202C153.593 26.3894 152.988 26.4988 152.423 26.7252C151.857 26.9516 151.344 27.2903 150.913 27.7209C150.483 28.1515 150.144 28.665 149.917 29.2304C149.691 29.7957 149.582 30.4011 149.596 31.0099V32.503C149.58 33.7069 150.039 34.8686 150.875 35.7353C151.711 36.602 152.855 37.1036 154.059 37.1311H156.593V37.5113C156.593 39.2138 155.315 40.1394 151.15 39.4011V41.6546C156.257 42.8502 159.012 41.043 159.012 38.0953V31.0099C159.029 30.4028 158.922 29.7987 158.698 29.2342C158.474 28.6697 158.138 28.1566 157.71 27.7259C157.281 27.2952 156.77 26.9559 156.207 26.7286C155.644 26.5014 155.041 26.3908 154.433 26.4038ZM156.593 34.7124H154.07C153.51 34.6759 152.986 34.4278 152.603 34.0183C152.22 33.6089 152.008 33.069 152.009 32.5085V31.0099C151.992 30.7161 152.038 30.422 152.143 30.147C152.248 29.872 152.409 29.6223 152.617 29.4142C152.825 29.2061 153.075 29.0443 153.35 28.9395C153.625 28.8347 153.919 28.7892 154.213 28.806H154.444C154.736 28.7922 155.027 28.84 155.298 28.9464C155.57 29.0528 155.816 29.2154 156.02 29.4234C156.225 29.6315 156.383 29.8803 156.484 30.1537C156.586 30.4271 156.629 30.7188 156.61 31.0099L156.593 34.7124Z" fill="white"/>
<path d="M172.39 24.9988C172.762 24.9759 173.112 24.8118 173.367 24.54C173.623 24.2682 173.765 23.9091 173.765 23.536C173.765 23.1628 173.623 22.8037 173.367 22.5319C173.112 22.2601 172.762 22.096 172.39 22.0731C172.017 22.096 171.667 22.2601 171.412 22.5319C171.156 22.8037 171.014 23.1628 171.014 23.536C171.014 23.9091 171.156 24.2682 171.412 24.54C171.667 24.8118 172.017 24.9759 172.39 24.9988Z" fill="white"/>
<path d="M168.268 24.9988C168.557 24.9977 168.839 24.9113 169.079 24.7506C169.318 24.5898 169.505 24.3618 169.616 24.0952C169.727 23.8286 169.756 23.5352 169.701 23.2519C169.646 22.9686 169.508 22.708 169.305 22.5027C169.102 22.2974 168.843 22.1567 168.56 22.0981C168.277 22.0395 167.984 22.0658 167.716 22.1735C167.448 22.2812 167.218 22.4656 167.054 22.7036C166.891 22.9416 166.802 23.2225 166.797 23.5112C166.795 23.7057 166.831 23.8988 166.904 24.0792C166.977 24.2596 167.085 24.4237 167.222 24.5621C167.359 24.7004 167.522 24.8103 167.701 24.8852C167.881 24.9602 168.074 24.9988 168.268 24.9988Z" fill="white"/>
<path d="M170.075 26.3872H169.739C169.15 26.3858 168.565 26.5005 168.02 26.7248C167.475 26.9491 166.979 27.2787 166.561 27.6946C166.143 28.1106 165.811 28.6048 165.584 29.149C165.357 29.6933 165.239 30.2769 165.238 30.8666V32.6518C165.234 33.2429 165.348 33.8288 165.574 34.3754C165.799 34.922 166.13 35.4182 166.55 35.8352C166.969 36.2522 167.466 36.5815 168.014 36.804C168.562 37.0265 169.148 37.1377 169.739 37.1311H170.263C170.829 37.1297 171.39 37.0164 171.913 36.7978C172.435 36.5792 172.909 36.2595 173.308 35.8572C173.707 35.4548 174.022 34.9777 174.236 34.4531C174.45 33.9286 174.558 33.367 174.555 32.8005V30.8666C174.556 30.278 174.441 29.6948 174.217 29.1507C173.992 28.6066 173.662 28.1122 173.246 27.696C172.83 27.2797 172.335 26.9498 171.791 26.7252C171.247 26.5006 170.664 26.3858 170.075 26.3872ZM172.136 32.9052C172.138 33.3783 171.953 33.833 171.622 34.1712C171.291 34.5093 170.841 34.7037 170.367 34.7124H169.756C169.207 34.7066 168.683 34.4846 168.297 34.0946C167.912 33.7047 167.695 33.1783 167.695 32.6297V30.8666C167.687 30.5937 167.734 30.322 167.835 30.0682C167.936 29.8144 168.087 29.5839 168.28 29.3908C168.473 29.1978 168.704 29.0463 168.958 28.9457C169.211 28.8451 169.483 28.7976 169.756 28.806H170.092C170.365 28.7976 170.637 28.8451 170.89 28.9457C171.144 29.0463 171.375 29.1978 171.568 29.3908C171.761 29.5839 171.912 29.8144 172.013 30.0682C172.113 30.322 172.161 30.5937 172.153 30.8666L172.136 32.9052Z" fill="white"/>
<path d="M200.219 25.1035C200.509 25.1067 200.794 25.0237 201.037 24.8649C201.28 24.7061 201.471 24.4787 201.584 24.2115C201.698 23.9444 201.73 23.6495 201.675 23.3643C201.621 23.079 201.483 22.8163 201.28 22.6095C201.076 22.4027 200.815 22.261 200.531 22.2025C200.247 22.144 199.951 22.1712 199.682 22.2808C199.414 22.3904 199.183 22.5773 199.021 22.818C198.858 23.0586 198.771 23.3421 198.77 23.6324C198.771 24.0183 198.924 24.3884 199.195 24.6633C199.465 24.9383 199.833 25.0963 200.219 25.1035Z" fill="white"/>
<path d="M205.205 33.7867C205.214 33.9084 205.198 34.0307 205.158 34.1457C205.117 34.2608 205.053 34.3663 204.97 34.4553C204.886 34.5444 204.785 34.6152 204.673 34.6632C204.561 34.7113 204.44 34.7355 204.318 34.7344H201.481V27.0208H199.045V37.4066C199.06 37.6877 199.016 37.9688 198.916 38.2318C198.816 38.4948 198.661 38.7339 198.463 38.9337C198.265 39.1335 198.027 39.2896 197.765 39.3919C197.503 39.4942 197.222 39.5405 196.941 39.5278H195.888V41.9466H196.941C197.54 41.9594 198.137 41.8507 198.693 41.627C199.25 41.4034 199.755 41.0695 200.179 40.6453C200.604 40.2212 200.938 39.7156 201.161 39.159C201.385 38.6024 201.494 38.0063 201.481 37.4066V37.1532H205.117C205.449 37.1569 205.778 37.0941 206.085 36.9684C206.392 36.8427 206.67 36.6567 206.904 36.4214C207.138 36.1861 207.322 35.9063 207.446 35.5985C207.569 35.2908 207.63 34.9613 207.624 34.6297V22.5084H205.205V33.7867Z" fill="white"/>
<path d="M212.919 22.5139H210.5V37.1477H212.919V22.5139Z" fill="white"/>
<path d="M222.61 24.7013C222.993 24.697 223.359 24.5429 223.63 24.2721C223.901 24.0013 224.055 23.6352 224.059 23.2522C224.062 22.9625 223.978 22.6787 223.818 22.4369C223.658 22.1951 223.43 22.0063 223.163 21.8944C222.896 21.7825 222.602 21.7527 222.317 21.8087C222.033 21.8647 221.772 22.004 221.567 22.2088C221.362 22.4137 221.223 22.6748 221.167 22.9591C221.111 23.2433 221.141 23.5378 221.253 23.805C221.364 24.0723 221.553 24.3002 221.795 24.4598C222.037 24.6194 222.321 24.7034 222.61 24.7013Z" fill="white"/>
<path d="M226.732 24.7013C227.116 24.7013 227.485 24.5486 227.756 24.2768C228.028 24.0051 228.181 23.6365 228.181 23.2522C228.181 22.8679 228.028 22.4993 227.756 22.2276C227.485 21.9558 227.116 21.8032 226.732 21.8032C226.35 21.8116 225.986 21.967 225.716 22.2369C225.446 22.5068 225.291 22.8705 225.283 23.2522C225.287 23.6352 225.441 24.0013 225.712 24.2721C225.983 24.5429 226.349 24.697 226.732 24.7013Z" fill="white"/>
<path d="M236.528 23.9685H234.324C234.101 23.8551 233.914 23.6836 233.781 23.4721C233.648 23.2606 233.575 23.0171 233.569 22.7674C233.554 22.6676 233.562 22.5657 233.591 22.4692C233.621 22.3727 233.671 22.284 233.739 22.2095C233.808 22.1351 233.891 22.0768 233.985 22.0389C234.078 22.001 234.179 21.9845 234.28 21.9905C234.513 21.9947 234.735 22.0887 234.901 22.253C235.066 22.4173 235.161 22.6391 235.167 22.872H236.407C236.302 21.401 235.481 20.6682 234.263 20.6682C233.997 20.6442 233.729 20.6785 233.477 20.7688C233.225 20.859 232.997 21.003 232.806 21.1907C232.616 21.3785 232.469 21.6054 232.375 21.8558C232.281 22.1062 232.243 22.374 232.263 22.6406C232.258 23.1382 232.438 23.6198 232.77 23.9905H232.01V25.3569H236.511L236.528 23.9685Z" fill="white"/>
<path d="M240.225 39.1091C239.935 39.108 239.652 39.193 239.411 39.3533C239.17 39.5135 238.982 39.7418 238.871 40.0092C238.76 40.2765 238.731 40.5708 238.788 40.8547C238.844 41.1386 238.984 41.3993 239.189 41.6036C239.394 41.8079 239.655 41.9466 239.939 42.0021C240.223 42.0577 240.518 42.0275 240.785 41.9155C241.051 41.8034 241.279 41.6146 241.438 41.3729C241.598 41.1312 241.682 40.8476 241.679 40.5582C241.671 40.1756 241.515 39.8111 241.244 39.541C240.973 39.2709 240.608 39.1161 240.225 39.1091Z" fill="white"/>
<path d="M244.346 39.1091C244.057 39.108 243.773 39.193 243.532 39.3533C243.291 39.5135 243.103 39.7418 242.992 40.0092C242.881 40.2765 242.852 40.5708 242.909 40.8547C242.965 41.1386 243.105 41.3993 243.31 41.6036C243.515 41.8079 243.776 41.9466 244.061 42.0021C244.345 42.0577 244.639 42.0275 244.906 41.9155C245.173 41.8034 245.4 41.6146 245.56 41.3729C245.719 41.1312 245.803 40.8476 245.801 40.5582C245.796 40.1742 245.642 39.8073 245.37 39.5364C245.098 39.2654 244.73 39.112 244.346 39.1091Z" fill="white"/>
<path d="M252.275 26.7619V27.985C251.447 28.1822 250.71 28.6528 250.183 29.3207C249.656 29.9886 249.37 30.8148 249.371 31.6655V32.7675C249.367 33.4882 249.63 34.1849 250.109 34.7234H245.503C244.286 34.7234 243.883 33.9465 243.883 32.9989V32.6407C243.894 32.4444 243.894 32.2476 243.883 32.0512V27.2027H241.448V33.0705C241.448 33.9741 241.073 34.7234 239.85 34.7234H237.266C236.027 34.7234 235.646 33.9465 235.646 32.9989V27.2027H233.228V33.0099C233.228 33.9575 232.892 34.7344 231.63 34.7344H230.423C230.241 34.7439 230.059 34.7151 229.889 34.6498C229.719 34.5845 229.565 34.4842 229.436 34.3553C229.307 34.2265 229.207 34.072 229.141 33.902C229.076 33.7319 229.047 33.55 229.057 33.368V26.3872H224.241C223.633 26.375 223.028 26.4866 222.464 26.7151C221.9 26.9436 221.388 27.2843 220.959 27.7165C220.53 28.1487 220.194 28.6635 219.97 29.2296C219.746 29.7957 219.64 30.4014 219.657 31.0099V32.4644C219.641 33.6706 220.103 34.8341 220.943 35.7004C221.782 36.5668 222.93 37.0653 224.137 37.0871C224.748 37.1181 225.359 37.0138 225.926 36.7814C226.493 36.549 227.001 36.1943 227.415 35.7427C227.776 36.1914 228.234 36.5518 228.756 36.7962C229.277 37.0407 229.847 37.1628 230.423 37.1532H231.663C232.194 37.1791 232.724 37.0868 233.214 36.8829C233.705 36.679 234.144 36.3685 234.5 35.9741C234.811 36.3302 235.191 36.6186 235.617 36.8214C236.044 37.0242 236.508 37.1372 236.98 37.1532H239.861C240.392 37.1791 240.922 37.0868 241.413 36.8829C241.903 36.679 242.343 36.3685 242.699 35.9741C243.013 36.3308 243.397 36.6194 243.828 36.8221C244.258 37.0249 244.725 37.1376 245.2 37.1532H258.677C259.271 37.1539 259.86 37.0374 260.409 36.8103C260.958 36.5833 261.457 36.2501 261.877 35.8299C262.297 35.4097 262.63 34.9108 262.857 34.3616C263.085 33.8125 263.201 33.2239 263.2 32.6297V31.1807C263.107 27.7316 258.815 25.1641 252.275 26.7619ZM226.627 33.4947C226.329 33.8693 225.948 34.1689 225.513 34.3698C225.079 34.5707 224.604 34.6673 224.126 34.6518C223.845 34.644 223.569 34.5806 223.313 34.4653C223.057 34.35 222.827 34.1851 222.635 33.9801C222.443 33.7751 222.294 33.5341 222.196 33.2711C222.099 33.0081 222.054 32.7283 222.065 32.4479V31.0099C222.046 30.7188 222.089 30.4271 222.19 30.1537C222.292 29.8803 222.45 29.6315 222.654 29.4234C222.859 29.2154 223.105 29.0528 223.376 28.9464C223.648 28.84 223.939 28.7922 224.23 28.806H226.627V33.4947ZM255.514 34.7344H253.41C252.887 34.7045 252.395 34.4806 252.029 34.1066C251.663 33.7325 251.45 33.2353 251.432 32.7124V31.7757C251.432 30.536 252.148 29.7977 253.492 29.7977C253.761 29.7712 254.031 29.8037 254.286 29.8931C254.54 29.9825 254.772 30.1265 254.965 30.3151C255.157 30.5036 255.307 30.7321 255.401 30.9844C255.496 31.2368 255.535 31.5069 255.514 31.7757V34.7344ZM258.605 34.7344H257.575V31.8308C257.62 31.0854 257.397 30.3484 256.945 29.7539C256.493 29.1593 255.843 28.7467 255.112 28.5911C258.291 28.2771 260.688 29.5167 260.749 31.1807V32.5691C260.749 33.1396 260.523 33.687 260.122 34.0925C259.721 34.4979 259.176 34.7286 258.605 34.7344Z" fill="white"/>
<path d="M194.61 33.1366C194.61 34.1985 194.189 35.2171 193.439 35.969C192.689 36.7209 191.672 37.1447 190.61 37.1477H179.695C179.363 37.1529 179.034 37.0913 178.726 36.9666C178.418 36.8419 178.138 36.6566 177.903 36.4218C177.668 36.1869 177.483 35.9073 177.359 35.5994C177.234 35.2916 177.172 34.9618 177.177 34.6297V22.5084H179.591V33.7923C179.582 33.914 179.599 34.0361 179.64 34.1509C179.682 34.2657 179.746 34.3707 179.83 34.4592C179.914 34.5478 180.015 34.618 180.128 34.6653C180.24 34.7127 180.361 34.7362 180.483 34.7344H190.461C190.704 34.7298 190.943 34.6758 191.164 34.5756C191.386 34.4754 191.584 34.3312 191.747 34.1517C191.911 33.9723 192.036 33.7613 192.115 33.5318C192.194 33.3024 192.226 33.0591 192.208 32.817C192.208 31.4947 191.216 30.8225 189.894 30.8225H183.591L183.128 29.0209L186.83 22.4919L189.1 23.3569L186.219 28.3983H189.916C190.536 28.3968 191.151 28.5186 191.724 28.7568C192.297 28.9949 192.817 29.3446 193.254 29.7855C193.691 30.2263 194.036 30.7496 194.269 31.3249C194.501 31.9002 194.617 32.516 194.61 33.1366Z" fill="white"/>
<path d="M8.85628 58.4702V60.3876H0.00220254V58.8504L5.73229 50.3654H0.349313V48.4646H8.61386V50.0183L2.92785 58.4702H8.85628Z" fill="white"/>
<path d="M11.4183 53.3076L11.0491 51.8971C13.8921 50.7125 17.7489 50.6244 17.7489 54.3655V60.36H15.6167V59.2581C15.2694 59.6443 14.8445 59.9529 14.3698 60.1636C13.8951 60.3744 13.3812 60.4826 12.8618 60.4812C12.5442 60.496 12.2271 60.4434 11.9313 60.3268C11.6354 60.2103 11.3676 60.0325 11.1454 59.8051C10.9232 59.5777 10.7517 59.3058 10.642 59.0074C10.5323 58.7089 10.4871 58.3907 10.5092 58.0735C10.5092 56.09 12.4431 54.7291 15.6497 54.8668V54.3985C15.6332 52.2993 13.4183 52.5418 11.4183 53.3076ZM12.4596 57.8255C12.4596 58.5363 13.0381 58.8889 13.7489 58.8889C14.1022 58.887 14.4515 58.8132 14.7754 58.6721C15.0993 58.5309 15.3912 58.3254 15.6332 58.068V56.079C13.4734 55.8531 12.4596 56.9881 12.4596 57.8255Z" fill="white"/>
<path d="M29.6223 53.3076L29.2532 51.8971C32.0741 50.7125 35.9309 50.6244 35.9309 54.3655V60.36H33.8207V59.2581C33.4734 59.6443 33.0485 59.9529 32.5738 60.1636C32.0991 60.3744 31.5853 60.4826 31.0659 60.4812C30.7483 60.496 30.4311 60.4434 30.1353 60.3268C29.8395 60.2103 29.5717 60.0325 29.3495 59.8051C29.1273 59.5777 28.9557 59.3058 28.846 59.0074C28.7364 58.7089 28.6911 58.3907 28.7132 58.0735C28.7132 56.09 30.6471 54.7291 33.8538 54.8668V54.3985C33.8372 52.2993 31.6223 52.5418 29.6223 53.3076ZM30.6637 57.8255C30.6637 58.5363 31.2422 58.8889 31.9529 58.8889C32.3063 58.887 32.6555 58.8132 32.9794 58.6721C33.3034 58.5309 33.5952 58.3254 33.8372 58.068V56.079C31.6774 55.8531 30.6637 56.9881 30.6637 57.8255Z" fill="white"/>
<path d="M40.6693 58.101C40.6553 58.2211 40.6686 58.3429 40.7081 58.4571C40.7477 58.5714 40.8125 58.6753 40.8977 58.7611C40.983 58.8468 41.0864 58.9123 41.2005 58.9525C41.3145 58.9928 41.4361 59.0068 41.5563 58.9936C41.8214 58.9938 42.0857 58.9643 42.3442 58.9054V60.4261C41.7975 60.5135 41.2449 60.5595 40.6913 60.5639C39.0715 60.5639 38.548 59.7264 38.548 58.2994V53.3958H37.4461L37.7271 51.809H38.559V49.6822L40.6693 49.1643V51.809H42.4489L42.1679 53.3958H40.6693V58.101Z" fill="white"/>
<path d="M45.5509 63.2636H44.2781C44.6066 62.0272 44.8387 60.7672 44.9723 59.495L45.0109 58.8669H46.5757L46.5095 59.4785C46.3221 60.77 46.0008 62.0385 45.5509 63.2636Z" fill="white"/>
<path d="M54.9835 50.3654V60.3876H52.6859V50.3654H49.4242V48.4646H58.2397V50.3654H54.9835Z" fill="white"/>
<path d="M60.8954 53.3076L60.5262 51.8971C63.3527 50.7125 67.204 50.6244 67.204 54.3544V60.349H65.0937V59.247C64.7464 59.6333 64.3216 59.9418 63.8468 60.1526C63.3721 60.3634 62.8583 60.4716 62.3389 60.4702C62.0213 60.485 61.7042 60.4324 61.4083 60.3158C61.1125 60.1993 60.8447 60.0215 60.6225 59.7941C60.4003 59.5666 60.2287 59.2948 60.1191 58.9963C60.0094 58.6979 59.9641 58.3796 59.9863 58.0625C59.9863 56.079 61.9202 54.7181 65.1268 54.8558V54.3875C65.1323 52.2993 62.9284 52.5418 60.8954 53.3076ZM61.9422 57.8255C61.9422 58.5363 62.4932 58.8889 63.2315 58.8889C63.584 58.8872 63.9325 58.8135 64.2556 58.6723C64.5786 58.5311 64.8695 58.3255 65.1103 58.068V56.079C62.9284 55.8531 61.9422 56.9881 61.9422 57.8255Z" fill="white"/>
<path d="M71.4905 51.6106L72.7302 53.4784L73.4409 54.7842L74.1958 53.4453L75.4134 51.6106H77.6173L74.7633 55.9027L77.7054 60.3986H75.1765L73.9478 58.5363L73.215 57.1974L72.4822 58.5528L71.2977 60.3876H68.9615L71.9258 55.8916L68.9891 51.6106H71.4905Z" fill="white"/>
<path d="M84.003 53.3076L83.6394 51.8971C86.4603 50.7125 90.3116 50.6244 90.3116 54.3544V60.349H88.2014V59.247C87.8545 59.6338 87.4297 59.9428 86.9549 60.1536C86.4801 60.3644 85.9661 60.4723 85.4466 60.4702C85.1289 60.485 84.8118 60.4324 84.516 60.3158C84.2202 60.1993 83.9524 60.0215 83.7302 59.7941C83.5079 59.5666 83.3364 59.2948 83.2267 58.9963C83.1171 58.6979 83.0718 58.3796 83.0939 58.0625C83.0939 56.079 85.0278 54.7181 88.2345 54.8558V54.3875C88.2234 52.2993 86.0085 52.5418 84.003 53.3076ZM85.0499 57.8255C85.0499 58.5363 85.6008 58.8889 86.3391 58.8889C86.6925 58.887 87.0417 58.8132 87.3656 58.6721C87.6896 58.5309 87.9814 58.3254 88.2234 58.068V56.079C86.0692 55.8531 85.0499 56.9881 85.0499 57.8255Z" fill="white"/>
<path d="M92.5816 60.349V51.6106H94.6863V52.415C95.5015 51.7754 96.5097 51.4315 97.5459 51.4398C99.2869 51.4398 100.179 52.4481 100.179 54.2773V60.338H98.0693V54.966C98.0693 54.0073 97.634 53.4674 96.6423 53.4674C95.9222 53.5203 95.2375 53.8 94.6863 54.2663V60.3269L92.5816 60.349Z" fill="white"/>
<path d="M105.579 60.4922C103.281 60.4922 102.202 58.5363 102.202 55.9247C102.202 53.3131 103.386 51.3572 105.7 51.3572C106.126 51.3577 106.548 51.446 106.938 51.6166C107.329 51.7872 107.68 52.0365 107.97 52.3489V48.393H110.058V60.349H107.97V59.4454C107.664 59.7731 107.293 60.0349 106.882 60.2148C106.471 60.3948 106.028 60.4892 105.579 60.4922ZM106.345 53.0652C105.111 53.0652 104.394 54.0955 104.394 55.9247C104.394 57.7539 105.111 58.7842 106.345 58.7842C106.938 58.7751 107.511 58.5654 107.97 58.1892V53.6602C107.506 53.2924 106.936 53.0837 106.345 53.0652Z" fill="white"/>
<path d="M121.491 60.5584C117.678 60.5584 116.108 58.068 116.108 54.4261C116.108 50.7842 117.678 48.3048 121.491 48.3048C122.883 48.316 124.257 48.6261 125.519 49.2139V50.9715C124.303 50.5342 123.029 50.2763 121.739 50.2056C119.535 50.2056 118.406 51.6382 118.406 54.4426C118.406 57.247 119.557 58.6575 121.739 58.6575C123.029 58.5943 124.302 58.3419 125.519 57.9082V59.6713C124.254 60.2491 122.881 60.5515 121.491 60.5584Z" fill="white"/>
<path d="M135.348 51.6106V60.4261H133.238V59.5721C132.434 60.2384 131.422 60.6011 130.378 60.5969C128.621 60.5969 127.75 59.5721 127.75 57.7594V51.6106H129.86V57.0321C129.86 57.9908 130.295 58.5308 131.287 58.5308C132.004 58.4703 132.685 58.1914 133.238 57.7319V51.6106H135.348Z" fill="white"/>
<path d="M137.353 59.8752V58.3049C138.303 58.752 139.334 59.0013 140.384 59.0377C141.69 59.0377 142.037 58.4096 142.037 57.9743C142.037 57.2801 141.199 57.0156 140.24 56.6685C139.001 56.2498 137.519 55.6933 137.519 53.9522C137.519 52.2112 138.852 51.0596 141.326 51.0596C142.361 51.0599 143.382 51.3033 144.307 51.7704V53.3241C143.573 52.8836 142.738 52.6424 141.882 52.6244C140.505 52.6244 139.932 53.2525 139.932 53.7759C139.932 54.5087 140.874 54.7842 141.921 55.1699C143.139 55.6051 144.499 56.1781 144.499 57.7484C144.499 59.5776 142.946 60.6245 140.819 60.6245C139.624 60.622 138.443 60.3667 137.353 59.8752Z" fill="white"/>
<path d="M148.836 58.101C148.821 58.2217 148.835 58.3439 148.875 58.4586C148.915 58.5734 148.98 58.6776 149.066 58.7635C149.152 58.8493 149.256 58.9147 149.371 58.9545C149.485 58.9944 149.608 59.0077 149.728 58.9936C149.991 58.9939 150.254 58.9643 150.511 58.9054V60.4261C149.964 60.5136 149.411 60.5597 148.858 60.5639C147.232 60.5639 146.714 59.7264 146.714 58.2994V53.3958H145.612L145.893 51.809H146.731V49.6822L148.836 49.1643V51.809H150.615L150.334 53.3958H148.836V58.101Z" fill="white"/>
<path d="M152.026 55.9247C152.026 53.3462 153.315 51.3572 156.125 51.3572C158.935 51.3572 160.219 53.3462 160.219 55.9247C160.219 58.5032 158.929 60.4922 156.125 60.4922C153.32 60.4922 152.026 58.5032 152.026 55.9247ZM153.976 55.9247C153.976 57.6327 154.659 58.9716 156.125 58.9716C157.591 58.9716 158.23 57.6327 158.23 55.9247C158.23 54.2167 157.585 52.8723 156.125 52.8723C154.665 52.8723 153.976 54.2167 153.976 55.9247Z" fill="white"/>
<path d="M175.238 54.2663V60.3269H173.122V54.966C173.122 54.0073 172.687 53.4674 171.69 53.4674C170.979 53.527 170.306 53.8149 169.772 54.2883C169.805 54.5127 169.818 54.7394 169.811 54.966V60.349H167.717V54.966C167.717 54.0073 167.282 53.4674 166.29 53.4674C165.592 53.5195 164.929 53.8003 164.406 54.2663V60.3269H162.301V51.6106H164.406V52.7676C164.75 52.36 165.176 52.0299 165.656 51.7991C166.137 51.5683 166.661 51.4421 167.194 51.4288C168.378 51.4288 169.166 51.8971 169.53 52.8723C170.56 51.8806 171.502 51.4288 172.599 51.4288C174.368 51.4288 175.238 52.4371 175.238 54.2663Z" fill="white"/>
<path d="M177.244 59.8752V58.3049C178.196 58.7516 179.228 59.0008 180.279 59.0377C181.585 59.0377 181.932 58.4096 181.932 57.9743C181.932 57.2801 181.095 57.0156 180.136 56.6685C178.902 56.2498 177.42 55.6933 177.42 53.9522C177.42 52.2112 178.742 51.0596 181.222 51.0596C182.255 51.0591 183.275 51.3026 184.197 51.7704V53.3241C183.465 52.8839 182.632 52.6426 181.778 52.6244C180.401 52.6244 179.822 53.2525 179.822 53.7759C179.822 54.5087 180.764 54.7842 181.811 55.1699C183.029 55.6051 184.39 56.1781 184.39 57.7484C184.39 59.5776 182.841 60.6245 180.715 60.6245C179.518 60.6227 178.335 60.3673 177.244 59.8752Z" fill="white"/>
<path d="M192.842 57.5115L191.921 60.3876H189.651L194.092 48.3764H195.977L200.28 60.3876H197.944L197.007 57.5115H192.842ZM193.26 55.8035H196.627L194.974 50.7842L193.26 55.8035Z" fill="white"/>
<path d="M209.591 51.6106V60.4261H207.481V59.5721C206.679 60.2376 205.669 60.6003 204.627 60.5969C202.864 60.5969 201.993 59.5721 201.993 57.7594V51.6106H204.103V57.0321C204.103 57.9908 204.539 58.5308 205.53 58.5308C206.247 58.4703 206.928 58.1914 207.481 57.7319V51.6106H209.591Z" fill="white"/>
<path d="M214.335 58.101C214.32 58.2214 214.332 58.3435 214.371 58.4583C214.411 58.5731 214.475 58.6774 214.561 58.7634C214.646 58.8495 214.75 58.9149 214.865 58.9548C214.979 58.9946 215.102 59.0079 215.222 58.9936C215.485 58.9939 215.748 58.9643 216.004 58.9054V60.4261C215.458 60.5136 214.905 60.5597 214.351 60.5639C212.732 60.5639 212.208 59.7264 212.208 58.2994V53.3958H211.106L211.387 51.809H212.241V49.6822L214.351 49.1643V51.809H216.098L215.822 53.3958H214.335V58.101Z" fill="white"/>
<path d="M225.294 54.2663V60.3269H223.183V54.966C223.183 53.9908 222.732 53.5004 221.894 53.4839C221.133 53.5199 220.403 53.7936 219.806 54.2663V60.3269H217.696V48.4646H219.806V52.3214C220.563 51.7192 221.49 51.3721 222.456 51.3296C224.109 51.3241 225.294 52.3159 225.294 54.2663Z" fill="white"/>
<path d="M227.316 55.9247C227.316 53.3462 228.605 51.3572 231.415 51.3572C234.225 51.3572 235.509 53.3462 235.509 55.9247C235.509 58.5032 234.219 60.4922 231.415 60.4922C228.61 60.4922 227.316 58.5032 227.316 55.9247ZM229.266 55.9247C229.266 57.6327 229.949 58.9716 231.415 58.9716C232.88 58.9716 233.52 57.6327 233.52 55.9247C233.52 54.2167 232.875 52.8723 231.415 52.8723C229.955 52.8723 229.266 54.2167 229.266 55.9247Z" fill="white"/>
<path d="M237.586 60.349V51.6106H239.69V53.2635C239.99 52.7433 240.426 52.3145 240.951 52.0233C241.477 51.7321 242.071 51.5894 242.671 51.6106V53.2635C241.487 53.1203 239.971 54.0624 239.707 54.8668V60.3765L237.586 60.349Z" fill="white"/>
<path d="M244.137 49.7208C244.137 49.5028 244.201 49.2898 244.323 49.1086C244.444 48.9274 244.616 48.7861 244.817 48.7027C245.018 48.6193 245.24 48.5975 245.454 48.64C245.667 48.6825 245.864 48.7875 246.018 48.9416C246.172 49.0957 246.277 49.2921 246.32 49.5058C246.362 49.7196 246.34 49.9411 246.257 50.1425C246.173 50.3438 246.032 50.5159 245.851 50.637C245.67 50.7581 245.457 50.8227 245.239 50.8227C244.946 50.8227 244.666 50.7066 244.46 50.5C244.253 50.2933 244.137 50.013 244.137 49.7208ZM246.313 60.349H244.197V51.831H246.308L246.313 60.349Z" fill="white"/>
<path d="M251.647 58.101C251.631 58.2214 251.644 58.3435 251.683 58.4583C251.722 58.5731 251.787 58.6774 251.873 58.7634C251.958 58.8495 252.062 58.9149 252.177 58.9548C252.291 58.9946 252.413 59.0079 252.534 58.9936C252.799 58.9935 253.063 58.9639 253.321 58.9054V60.4261C252.775 60.5135 252.222 60.5595 251.669 60.5639C250.049 60.5639 249.525 59.7264 249.525 58.2994V53.3958H248.423L248.699 51.809H249.536V49.6822L251.647 49.1643V51.809H253.426L253.145 53.3958H251.647V58.101Z" fill="white"/>
<path d="M263.255 51.6106L259.018 63.5336H257.013L257.906 61.0046L254.418 51.6382H256.787L258.864 58.4371L260.985 51.6106H263.255Z" fill="white"/>
<path d="M27.3193 60.3435H24.8454L22.063 56.3104V60.3435H19.9583V48.4646H22.063V55.2305L24.6911 51.4012H27.0548L23.9088 55.6382L27.3193 60.3435Z" fill="white"/>
<path d="M309.521 6L279.236 26.6513L279.627 27.2249L309.912 6.57356L309.521 6Z" fill="white"/>
<path d="M303.543 6.37331L279.273 22.9168L279.664 23.4905L303.934 6.94694L303.543 6.37331Z" fill="white"/>
<path d="M296.171 7.59097L279.285 19.1399L279.677 19.713L296.563 8.16399L296.171 7.59097Z" fill="white"/>
<path d="M286.314 10.5482L279.31 15.3869L279.705 15.958L286.708 11.1194L286.314 10.5482Z" fill="white"/>
<path d="M325.107 32.6738L325.102 32.6683L320.193 36.0182L320.198 36.0237L294.942 53.2415L295.465 54.0073L292.033 56.404L292.303 56.7897L284.997 61.8862L285.393 62.4592L296.115 54.966L321.768 37.4727L321.239 36.7014L325.757 33.6215L325.498 33.2468L341.978 22.0125L341.587 21.4395L325.107 32.6738Z" fill="white"/>
<path d="M326.501 35.4562V35.4507L321.245 39.032L321.25 39.0375L296.809 55.7043L297.327 56.4647L293.652 59.0267L293.911 59.3958L286.749 64.4096L287.151 64.9771L294.308 59.9688L294.314 59.9743L297.978 57.4178L297.983 57.4233L322.507 40.7014L321.978 39.9356L327.151 36.4094L326.892 36.0292L341.956 25.7591L341.565 25.1861L326.501 35.4562Z" fill="white"/>
<path d="M327.846 38.2772L327.84 38.2716L323.493 41.2359V41.2414L298.545 58.2498L299.063 59.0101L295.697 61.3628L295.955 61.7319L288.721 66.8008L289.118 67.3683L296.352 62.2994L296.358 62.3104L299.713 59.9688L299.719 59.9743L324.678 42.9549L324.154 42.189L328.49 39.2303L328.237 38.8502L341.934 29.5112L341.543 28.9382L327.846 38.2772Z" fill="white"/>
<path d="M329.895 40.6133V40.6077L325.581 43.5444L325.587 43.5554L300.358 60.6796L300.892 61.4619L296.589 64.4647L296.854 64.8449L290.881 69.0213L291.283 69.5888L298.104 64.8229V64.8174L302.688 61.6162L326.981 45.1257L326.457 44.3488L330.545 41.5609L330.286 41.1863L341.912 33.2633L341.521 32.6903L329.895 40.6133Z" fill="white"/>
<path d="M332.43 42.6133L332.424 42.6023L327.708 45.8199V45.8254L305.823 60.7512L306.341 61.506L301.168 65.1259L301.432 65.5061L293.349 71.1535L293.746 71.721L306.991 62.4647L306.997 62.4702L329.014 47.4563L328.49 46.6849L333.074 43.5609L332.821 43.1863L341.89 36.9989L341.499 36.4259L332.43 42.6133Z" fill="white"/>
<path d="M338.039 42.7951L337.912 42.6023L311.19 60.8228L311.719 61.5942L306.011 65.5832L306.275 65.9634L296.259 72.9662L296.655 73.5337L312.892 62.1837L333.548 48.1009L333.025 47.3351L338.562 43.5609L338.237 43.0816L338.435 43.3681L341.873 40.9383L341.471 40.3708L338.039 42.7951Z" fill="white"/>
<path d="M338.132 46.1946V46.1836L335.014 48.3103H335.008L322.551 56.8063L323.08 57.5776L317.807 61.2636L318.071 61.6438L299.068 74.9276L299.465 75.4951L323.84 58.4592L323.835 58.4537L336.182 50.0348L335.664 49.269L338.782 47.1422L338.523 46.7676L341.791 44.5417L341.399 43.9687L338.132 46.1946Z" fill="white"/>
<path d="M338.755 49.6381L338.689 49.5445L335.752 51.5445H335.746L325.857 58.2829L326.38 59.0542L321.779 62.2719L322.044 62.6576L302.016 76.6522L302.413 77.2197L323.465 62.5088V62.5033L327.51 59.6823L336.92 53.2635L336.402 52.5032L339.339 50.4977L339.014 50.0238L341.256 48.4921L340.997 48.112L338.755 49.6381Z" fill="white"/>
<path d="M284.842 29.0704L295.487 21.8142L294.964 21.0483L299.641 17.8637L299.388 17.4891L315.146 6.73965L314.755 6.16664L298.997 16.9106L298.991 16.905L294.314 20.0952V20.0896L283.041 27.7757L283.57 28.547L280.892 30.4148L281.162 30.795L279.206 32.1669L279.603 32.7344L284.842 29.0704Z" fill="white"/>
<path d="M283.796 33.5664V33.5609L286.572 31.6214L299.73 22.6461L299.212 21.8858L302.843 19.4064L302.6 19.0538L319.752 7.25205L319.355 6.68456L302.209 18.4808L302.192 18.4533L284.561 30.4699L285.09 31.2468L282.683 32.9272L282.947 33.3074L279.178 35.941L279.581 36.5085L283.796 33.5664Z" fill="white"/>
<path d="M288.11 34.3047L302.435 24.536L301.9 23.7536L305.752 21.1255L305.509 20.7673L324.005 8.03994L323.609 7.46693L305.118 20.1943L305.102 20.1723L301.085 22.9106L301.096 22.9271L286.082 33.1642L286.611 33.941L283.366 36.211L283.63 36.5912L279.156 39.7152L279.559 40.2827L288.11 34.3047Z" fill="white"/>
<path d="M289.917 36.8061L305.14 26.4258L304.617 25.6544L308.677 22.8831L308.407 22.4864L328.215 9.13086L327.829 8.55785L307.752 22.0897L307.763 22.1062L303.95 24.7123L287.597 35.8639L288.132 36.6408L284.396 39.2524L284.661 39.6325L279.184 43.4563L279.581 44.0293L289.917 36.8061Z" fill="white"/>
<path d="M287.696 42.0899L290.292 40.2772V40.2827L307.84 28.3101L307.316 27.5443L311.856 24.4478L311.603 24.0732L331.521 10.4918L331.129 9.91875L311.212 23.5001L311.206 23.4946L306.639 26.6076V26.6131L289.118 38.5581L289.636 39.324L286.286 41.6656L286.556 42.0513L279.504 46.9659L279.906 47.5334L287.702 42.0954L287.696 42.0899Z" fill="white"/>
<path d="M289.443 44.6353L292.402 42.5692L310.545 30.1999L310.022 29.4341L315.047 26.0071L314.788 25.6324L335.251 11.6763L334.859 11.1033L314.396 25.0594L314.391 25.0484L309.069 28.6793V28.6848L290.633 41.2524L291.162 42.0293L287.999 44.2386L288.264 44.6188L280.126 50.3048L280.523 50.8723L289.449 44.6408L289.443 44.6353Z" fill="white"/>
<path d="M289.95 48.0513L294.192 45.0871L315.609 30.5691L315.08 29.7922L319.818 26.5635L319.559 26.1889L338.562 13.2301L338.171 12.6516L319.168 25.6104L319.162 25.6048L314.281 28.9382L314.286 28.9492L292.044 44.0238L292.573 44.8061L288.606 47.5775L288.876 47.9577L281.008 53.4508L281.404 54.0239L289.95 48.0569V48.0513Z" fill="white"/>
<path d="M290.473 51.4123L294.231 48.7896L317.482 32.9327L316.964 32.1724L321.724 28.9327L321.465 28.5525L341.57 14.8444L341.179 14.2714L321.074 27.9795L321.069 27.974L316.314 31.2192L316.308 31.2137L292.539 47.4232L293.063 48.1946L289.041 51.0045L289.305 51.3847L282.121 56.404L282.517 56.9771L290.479 51.4123H290.473Z" fill="white"/>
<path d="M291.212 54.6244L294.396 52.404H294.402L319.217 35.4837L318.699 34.7179L323.24 31.6214L322.981 31.2468L342 18.277L341.609 17.7039L322.589 30.6738L322.584 30.6627L293.223 50.685L293.746 51.4453L289.994 54.0679L290.275 54.4646L283.437 59.1975L283.834 59.765L291.228 54.6465L291.212 54.6244Z" fill="white"/>
<path d="M339.231 54.405L304.898 78.3291L305.295 78.8987L339.628 54.9746L339.231 54.405Z" fill="white"/>
<path d="M336.557 60.84L307.638 80.9425L308.034 81.5118L336.953 61.4093L336.557 60.84Z" fill="white"/>
<path d="M330.581 68.7805L317.877 77.6116L318.272 78.1809L330.977 69.3497L330.581 68.7805Z" fill="white"/>
</g>
<defs>
<clipPath id="clip0_91_2">
<rect width="342" height="88" fill="white"/>
</clipPath>
</defs>
</svg>
