<svg width="27" height="33" viewBox="0 0 27 33" fill="none" xmlns="http://www.w3.org/2000/svg">
<path fill-rule="evenodd" clip-rule="evenodd" d="M0.134863 8.88781L12.7695 0.149048L12.9327 0.391756L0.298031 9.13052L0.134863 8.88781ZM0.150581 7.30752L10.2758 0.307011L10.439 0.549747L0.313707 7.55026L0.150581 7.30752ZM7.20027 0.822276L0.155676 5.70931L0.319178 5.95178L7.36378 1.06475L7.20027 0.822276ZM0.165962 4.12116L3.08778 2.07366L3.2524 2.31535L0.330589 4.36286L0.165962 4.12116ZM19.2721 11.4363L19.2698 11.4339L17.2218 12.8515L17.2241 12.8538L6.68729 20.1396L6.90566 20.4637L5.47364 21.4779L5.58627 21.6411L2.53833 23.7977L2.70384 24.0402L6.06668 21.6574L7.1769 20.8694L17.8791 13.467L17.6585 13.1406L19.5433 11.8373L19.4353 11.6787L26.3104 6.92486L26.1472 6.68239L19.2721 11.4363ZM19.8536 12.6113V12.6137L26.138 8.2678L26.3012 8.51027L20.0168 12.8561L20.1249 13.017L17.9665 14.5091L18.1872 14.8332L7.95611 21.9092L7.95381 21.9069L6.42525 22.9887L6.42295 22.9864L3.43708 25.1057L3.26927 24.8655L6.25745 22.7439L6.14942 22.5877L7.68258 21.5035L7.46651 21.1818L17.6631 14.1291L17.6608 14.1268L19.8536 12.6113ZM20.4145 13.8074L20.4122 13.805L18.5986 15.0594V15.0617L8.19058 22.2589L8.40665 22.5807L7.0022 23.5762L7.11024 23.7324L4.09219 25.8774L4.25769 26.1175L7.27573 23.9726L7.27803 23.9772L8.67788 22.9863L8.68018 22.9887L19.0928 15.7868L18.8744 15.4627L20.6834 14.2107L20.5777 14.0498L26.292 10.098L26.1288 9.85552L20.4145 13.8074ZM21.2696 14.7936V14.7959L26.1196 11.4433L26.2828 11.6857L21.4328 15.0384L21.5408 15.1969L19.8353 16.3766L20.0536 16.7054L9.91912 23.6835L8.0067 25.0381V25.0404L5.16104 27.0571L4.99323 26.817L7.48492 25.0497L7.37459 24.8888L9.16979 23.6182L8.94682 23.2871L19.4721 16.0409L19.4698 16.0363L21.2696 14.7936ZM22.3269 15.6422L22.3246 15.6376L20.357 16.9991V17.0015L11.227 23.3174L11.4431 23.6368L9.28469 25.1686L9.39501 25.3295L6.02298 27.7192L6.18847 27.9594L9.85933 25.3574L11.7143 24.0425L11.7166 24.0448L20.9018 17.6916L20.6834 17.3652L22.5958 16.0432L22.4901 15.8847L26.2736 13.2664L26.1104 13.024L22.3269 15.6422ZM24.614 15.6376L24.6669 15.7192L26.0989 14.6933L26.2667 14.9335L24.8324 15.9616L24.7497 15.8404L24.8853 16.0432L22.5752 17.6403L22.7935 17.9644L14.1761 23.9236L11.8752 25.5556L7.40217 28.7264L7.23667 28.4863L11.4155 25.523L11.3052 25.3621L13.6865 23.6741L13.4659 23.3477L22.3039 17.2346L24.614 15.6376ZM24.706 17.1577V17.153L23.405 18.053H23.4027L18.2056 21.6481L18.4262 21.9745L16.2265 23.5342L16.3368 23.6951L8.40897 29.3163L8.57446 29.5564L16.8149 23.7138L18.7434 22.3475L18.7411 22.3452L23.8923 18.7827L23.6762 18.4586L24.9772 17.5587L24.8692 17.4002L26.2323 16.4582L26.0691 16.2158L24.706 17.1577ZM24.9381 18.5752L24.9657 18.6149L25.9012 17.969L26.0092 18.1299L25.0737 18.7781L25.2093 18.9786L23.9842 19.8272L24.2003 20.149L20.2743 22.8651L18.5871 24.0588V24.0612L9.80416 30.2862L9.63866 30.046L17.994 24.1241L17.8837 23.9609L19.803 22.5993L19.5847 22.2729L23.7106 19.4215H23.7129L24.9381 18.5752ZM1.2994 10.7438L2.47399 9.91148L6.91487 6.84094L6.6965 6.51686L8.64801 5.16928L8.54227 5.01074L15.1163 0.462042L14.9531 0.219569L8.37908 4.76593L8.37678 4.7636L6.42527 6.11352V6.11119L1.72234 9.36359L1.94301 9.68999L0.825886 10.4804L0.93853 10.6412L0.122524 11.2218L0.288023 11.4619L1.2994 10.7438ZM2.03723 11.8116V11.814L0.278805 13.059L0.111006 12.8188L1.68325 11.7044L1.57291 11.5435L2.57739 10.8324L2.35674 10.5037L8.19746 6.46557L9.71224 5.41874L9.71913 5.4304L16.8723 0.438728L17.0379 0.678869L9.88233 5.67287L9.98347 5.82209L8.46869 6.87125L8.68476 7.19299L3.19571 10.991L2.03723 11.8116ZM2.29696 13.2175L3.83702 12.1264L9.81336 7.99268L9.59039 7.66161L11.1971 6.5495L11.096 6.39796L18.8124 1.01227L18.6469 0.769793L10.9328 6.15548L10.9259 6.14616L9.25021 7.3049L9.25481 7.31189L2.99114 11.6438L3.2118 11.9725L1.85793 12.9331L1.96826 13.0939L0.101807 14.4159L0.2696 14.656L2.29696 13.2175ZM4.59098 13.1849L2.91301 14.3739L0.278824 16.2414L0.113325 15.9989L2.39813 14.3809L2.2878 14.22L3.84624 13.1149L3.62328 12.7862L10.4455 8.06728L12.0361 6.9645L12.0315 6.9575L20.4076 1.23142L20.5685 1.47389L12.3051 7.12537L12.4177 7.29324L10.7236 8.46596L10.942 8.79237L4.59098 13.1849ZM3.66467 15.4207L4.7473 14.6537V14.656L12.0683 9.58974L11.85 9.26567L13.744 7.95538L13.6383 7.79684L21.9477 2.04977L21.7845 1.8073L13.4751 7.55437L13.4728 7.55204L11.5672 8.86932V8.87165L4.25771 13.9263L4.47377 14.2503L3.07623 15.2412L3.18886 15.4044L0.246656 17.4841L0.414455 17.7242L3.66697 15.4231L3.66467 15.4207ZM5.62764 15.6236L4.39329 16.4979L4.39559 16.5002L0.671867 19.1371L0.506369 18.8969L3.90139 16.4909L3.79106 16.33L5.11045 15.3951L4.8898 15.0663L12.5809 9.74827V9.74594L14.8013 8.2095L14.8036 8.21416L23.3406 2.30856L23.5038 2.55103L14.9668 8.45664L15.0749 8.61518L12.9785 10.0654L13.1969 10.3894L5.62764 15.6236ZM4.60477 17.9434L6.37469 16.6891L15.3093 10.5456L15.0887 10.2169L17.0655 8.85066L16.9574 8.69211L24.8853 3.2085L24.7221 2.9637L16.7942 8.44731L16.7919 8.44498L14.7554 9.85552L14.7577 9.86018L5.47825 16.2391L5.6989 16.5701L4.04391 17.7429L4.15656 17.9037L0.874157 20.2282L1.03966 20.4707L4.60477 17.9457V17.9434ZM6.39079 18.2558L4.82314 19.3656H4.82545L1.50397 21.7204L1.33848 21.4779L4.33584 19.3539L4.22552 19.193L5.90349 18.004L5.68512 17.6776L15.6013 10.8184L15.6036 10.8207L17.5872 9.44751L17.5895 9.44984L25.9771 3.64915L26.1403 3.89162L17.7527 9.69232L17.8608 9.85319L15.8748 11.2241L16.0909 11.5458L6.39079 18.2558ZM5.13115 20.7248L6.45973 19.7852H6.46203L16.8149 12.6253L16.5988 12.3012L18.4929 10.9909L18.3848 10.8324L26.3196 5.34412L26.1564 5.10165L18.2216 10.5899L18.2193 10.5853L16.3253 11.8955L5.97013 19.0578L6.1885 19.3796L4.62315 20.4893L4.74038 20.6572L1.88782 22.6599L2.05333 22.9001L5.13804 20.7341L5.13115 20.7248ZM10.8411 30.7557L25.1644 20.632L25.33 20.873L11.0067 30.9967L10.8411 30.7557ZM24.0489 23.355L11.984 31.8615L12.1491 32.1024L24.214 23.5959L24.0489 23.355ZM16.2555 30.452L21.5557 26.7151L21.7208 26.956L16.4206 30.6929L16.2555 30.452Z" fill="white"/>
</svg>
